<svg width="310" height="215" viewBox="0 0 310 215" fill="none" xmlns="http://www.w3.org/2000/svg">
<rect width="309.354" height="214.94" rx="15" fill="#150B00"/>
<path d="M120.019 159.698H113.52L112.323 163.012H110.271L115.658 148.196H117.903L123.269 163.012H121.216L120.019 159.698ZM119.463 158.116L116.77 150.591L114.076 158.116H119.463Z" fill="white"/>
<path d="M139.705 151.082C140.617 151.082 141.43 151.275 142.142 151.66C142.855 152.03 143.418 152.593 143.831 153.349C144.244 154.104 144.451 155.023 144.451 156.106V163.012H142.527V156.384C142.527 155.216 142.235 154.325 141.65 153.712C141.08 153.085 140.304 152.771 139.32 152.771C138.308 152.771 137.503 153.099 136.904 153.755C136.306 154.396 136.007 155.33 136.007 156.555V163.012H134.082V156.384C134.082 155.216 133.79 154.325 133.206 153.712C132.636 153.085 131.859 152.771 130.876 152.771C129.864 152.771 129.059 153.099 128.46 153.755C127.861 154.396 127.562 155.33 127.562 156.555V163.012H125.617V151.296H127.562V152.985C127.947 152.372 128.46 151.902 129.101 151.574C129.757 151.246 130.477 151.082 131.261 151.082C132.244 151.082 133.113 151.303 133.869 151.745C134.624 152.187 135.187 152.835 135.558 153.691C135.885 152.864 136.427 152.223 137.182 151.766C137.938 151.31 138.779 151.082 139.705 151.082Z" fill="white"/>
<path d="M146.915 157.111C146.915 155.914 147.158 154.866 147.642 153.968C148.127 153.056 148.79 152.351 149.631 151.852C150.486 151.353 151.433 151.104 152.474 151.104C153.5 151.104 154.391 151.325 155.146 151.766C155.902 152.208 156.465 152.764 156.835 153.434V151.296H158.802V163.012H156.835V160.831C156.45 161.515 155.873 162.085 155.103 162.541C154.348 162.983 153.464 163.204 152.452 163.204C151.412 163.204 150.471 162.947 149.631 162.434C148.79 161.921 148.127 161.202 147.642 160.275C147.158 159.349 146.915 158.294 146.915 157.111ZM156.835 157.133C156.835 156.249 156.657 155.479 156.301 154.824C155.944 154.168 155.46 153.669 154.847 153.327C154.248 152.971 153.586 152.793 152.859 152.793C152.132 152.793 151.469 152.964 150.87 153.306C150.272 153.648 149.794 154.147 149.438 154.802C149.082 155.458 148.904 156.227 148.904 157.111C148.904 158.009 149.082 158.793 149.438 159.463C149.794 160.118 150.272 160.624 150.87 160.981C151.469 161.323 152.132 161.494 152.859 161.494C153.586 161.494 154.248 161.323 154.847 160.981C155.46 160.624 155.944 160.118 156.301 159.463C156.657 158.793 156.835 158.016 156.835 157.133Z" fill="white"/>
<path d="M163.543 161.408H169.294V163.012H161.32V161.408L167.007 152.878H161.363V151.296H169.251V152.878L163.543 161.408Z" fill="white"/>
<path d="M176.928 163.204C175.83 163.204 174.833 162.955 173.935 162.456C173.051 161.957 172.353 161.251 171.84 160.339C171.341 159.413 171.092 158.344 171.092 157.133C171.092 155.935 171.348 154.881 171.861 153.968C172.388 153.042 173.101 152.337 173.999 151.852C174.897 151.353 175.902 151.104 177.013 151.104C178.125 151.104 179.13 151.353 180.028 151.852C180.926 152.337 181.631 153.035 182.144 153.947C182.672 154.859 182.935 155.921 182.935 157.133C182.935 158.344 182.664 159.413 182.123 160.339C181.595 161.251 180.876 161.957 179.964 162.456C179.051 162.955 178.04 163.204 176.928 163.204ZM176.928 161.494C177.626 161.494 178.282 161.33 178.895 161.002C179.508 160.674 179.999 160.183 180.37 159.527C180.755 158.871 180.947 158.073 180.947 157.133C180.947 156.192 180.762 155.394 180.391 154.738C180.021 154.083 179.536 153.598 178.937 153.284C178.339 152.957 177.69 152.793 176.992 152.793C176.279 152.793 175.624 152.957 175.025 153.284C174.441 153.598 173.97 154.083 173.614 154.738C173.258 155.394 173.08 156.192 173.08 157.133C173.08 158.087 173.251 158.893 173.593 159.548C173.949 160.204 174.419 160.696 175.004 161.023C175.588 161.337 176.229 161.494 176.928 161.494Z" fill="white"/>
<path d="M191.201 151.082C192.626 151.082 193.781 151.517 194.664 152.386C195.548 153.242 195.99 154.482 195.99 156.106V163.012H194.066V156.384C194.066 155.216 193.774 154.325 193.189 153.712C192.605 153.085 191.807 152.771 190.795 152.771C189.769 152.771 188.949 153.092 188.336 153.733C187.738 154.375 187.439 155.308 187.439 156.534V163.012H185.493V151.296H187.439V152.964C187.823 152.365 188.344 151.902 188.999 151.574C189.669 151.246 190.403 151.082 191.201 151.082Z" fill="white"/>
<path d="M182.839 123.154C182.175 122.33 176.455 121.622 172.965 124.071C172.433 124.447 172.52 124.967 173.12 124.897C175.082 124.666 179.459 124.141 180.235 125.136C181.013 126.133 179.367 130.251 178.628 132.087C178.402 132.644 178.884 132.868 179.387 132.45C182.667 129.719 183.508 123.984 182.839 123.154Z" fill="#FF8000"/>
<path d="M176.816 126.606C169.982 129.508 162.549 130.906 155.784 130.906C145.769 130.906 136.063 128.163 128.221 123.596C127.537 123.194 127.028 123.897 127.597 124.412C134.867 130.98 144.474 134.93 155.145 134.93C162.76 134.93 171.596 132.535 177.699 128.038C178.707 127.292 177.849 126.173 176.816 126.606Z" fill="#FF8000"/>
<path d="M179.239 111.057C177.188 108.209 175.017 105.909 175.017 100.666V83.1959C175.017 75.8079 175.54 69.012 170.092 63.9151C165.784 59.7878 158.662 58.3376 153.196 58.3376C142.539 58.3376 130.646 62.3105 128.132 75.4905C127.875 76.8977 128.904 77.6356 129.797 77.8416L140.694 79.0086C141.69 78.9657 142.436 77.9703 142.633 76.9578C143.552 72.4186 147.379 70.2305 151.652 70.2305C153.951 70.2305 156.56 71.08 157.933 73.1479C159.495 75.4476 159.28 78.6053 159.28 81.2653V82.7068C152.793 83.4619 144.298 83.9339 138.206 86.611C131.204 89.6229 126.253 95.8181 126.253 104.914C126.253 116.558 133.598 122.384 143.028 122.384C151.008 122.384 155.367 120.505 161.511 114.232C163.545 117.184 164.214 118.626 167.938 121.715C168.779 122.161 169.843 122.109 170.589 121.457L170.624 121.474C172.855 119.501 176.913 115.94 179.213 114.035C180.123 113.263 179.968 112.061 179.239 111.057ZM159.28 94.1106C159.28 98.4782 159.4 102.116 157.186 105.995C155.41 109.153 152.587 111.083 149.429 111.083C145.13 111.083 142.633 107.814 142.633 102.966C142.633 93.4155 151.188 91.6822 159.28 91.6822V94.1106Z" fill="#FFFBF7"/>
<path d="M269.849 15.2365C269.6 14.8922 269.194 14.7388 268.823 14.7388C268.299 14.7388 267.812 15.007 267.596 15.5822C267.348 15.0077 267 14.7388 266.445 14.7388C265.899 14.7388 265.493 15.007 265.277 15.5822H265.262V14.9873C265.256 14.9051 265.187 14.8386 265.101 14.8352H264.274C264.179 14.8352 264.103 14.9079 264.103 14.9989V19.5515C264.109 19.633 264.177 19.6961 264.261 19.7015H265.149C265.243 19.7015 265.319 19.6275 265.319 19.5372V17.123C265.319 16.5968 265.294 15.8681 265.931 15.8681C266.561 15.8681 266.479 16.6151 266.479 17.123V19.5365C266.479 19.6241 266.549 19.6941 266.639 19.7009H267.524C267.62 19.7009 267.696 19.6268 267.696 19.5365V17.123C267.696 16.8643 267.687 16.4799 267.778 16.2504C267.869 16.0209 268.094 15.8776 268.308 15.8776C268.565 15.8776 268.764 15.9638 268.83 16.2694C268.872 16.4521 268.855 16.9309 268.855 17.123V19.5365C268.855 19.6241 268.926 19.6941 269.014 19.7009H269.901C269.995 19.7009 270.071 19.6268 270.071 19.5365L270.072 16.664C270.072 16.1757 270.129 15.6195 269.849 15.2365Z" fill="#FFFBF7"/>
<path d="M281.538 14.7407C280.255 14.7407 279.543 15.8429 279.543 17.2595C279.543 18.6679 280.246 19.7979 281.538 19.7979C282.779 19.7979 283.567 18.6964 283.567 17.3077C283.57 15.8707 282.856 14.7407 281.538 14.7407ZM281.538 18.8594C280.843 18.8594 280.85 17.6717 280.85 17.1155C280.85 16.5607 280.892 15.6697 281.545 15.6697C281.826 15.6697 282.026 15.7933 282.125 16.1104C282.242 16.4744 282.258 16.9335 282.258 17.3179C282.261 17.9019 282.227 18.8594 281.538 18.8594Z" fill="#FFFBF7"/>
<path d="M275.037 18.8696C274.876 18.6441 274.705 18.4621 274.705 18.0472V16.6646C274.705 16.0799 274.745 15.5421 274.314 15.1387C273.973 14.812 273.409 14.6973 272.978 14.6973C272.134 14.6973 271.191 15.0117 270.994 16.0548C270.973 16.1661 271.053 16.2245 271.126 16.2408L271.986 16.3332C272.066 16.3298 272.125 16.251 272.14 16.1709C272.213 15.8116 272.515 15.6385 272.853 15.6385C273.036 15.6385 273.243 15.7057 273.35 15.8694C273.476 16.0514 273.459 16.3013 273.459 16.5118L273.458 16.6245C272.944 16.6836 272.271 16.7209 271.79 16.9328C271.234 17.1725 270.845 17.6628 270.845 18.3827C270.845 19.3042 271.425 19.7653 272.171 19.7653C272.801 19.7653 273.148 19.6166 273.634 19.1202C273.794 19.3538 273.848 19.4679 274.142 19.7123C274.21 19.7476 274.294 19.7436 274.353 19.692L274.354 19.6933C274.531 19.5371 274.853 19.2553 275.033 19.1045C275.105 19.0455 275.094 18.949 275.037 18.8696ZM273.458 17.5284C273.458 17.874 273.467 18.162 273.291 18.4689C273.152 18.7188 272.927 18.8716 272.68 18.8716C272.338 18.8716 272.138 18.6129 272.138 18.2292C272.138 17.4734 272.816 17.3362 273.458 17.3362V17.5284Z" fill="#FFFBF7"/>
<path d="M287.645 15.275C287.396 14.8824 287.005 14.7385 286.608 14.7378C285.996 14.7378 285.646 15.0346 285.399 15.6573H285.385V14.9612C285.368 14.8899 285.303 14.8369 285.226 14.8335H284.404C284.313 14.8335 284.241 14.8987 284.232 14.9823L284.234 19.5362C284.234 19.6238 284.304 19.6951 284.394 19.7019H285.276C285.372 19.7019 285.449 19.6279 285.45 19.5362V17.0861C285.45 16.7785 285.466 16.5021 285.592 16.2236C285.69 16.0043 285.888 15.8596 286.105 15.8596C286.717 15.8596 286.658 16.5883 286.658 17.0861V19.5586C286.665 19.6354 286.735 19.6951 286.814 19.7026H287.705C287.794 19.7026 287.865 19.6381 287.877 19.5586V16.6929C287.877 16.2522 287.877 15.6403 287.645 15.275Z" fill="#FFFBF7"/>
<path d="M278.966 18.4688C278.457 18.1823 277.865 18.098 277.303 18.1123L278.816 15.9555C278.955 15.7613 279.035 15.6397 279.035 15.546V14.9885C279.035 14.8907 278.961 14.8235 278.866 14.8235H275.951C275.86 14.8235 275.787 14.8894 275.787 14.9885V15.6397C275.787 15.7369 275.86 15.8034 275.955 15.8034H277.479L275.728 18.3133C275.622 18.4743 275.621 18.6549 275.621 18.7608V19.4216C275.621 19.5167 275.729 19.626 275.83 19.5703C276.822 19.044 278.011 19.0963 278.908 19.5662C279.019 19.6233 279.122 19.5119 279.122 19.4168V18.7214C279.112 18.6284 279.082 18.5327 278.966 18.4688Z" fill="#FFFBF7"/>
<path d="M278.4 20.1181C278.218 19.8934 276.656 19.6998 275.704 20.3687C275.558 20.4713 275.582 20.6132 275.746 20.5942C276.281 20.531 277.477 20.3877 277.689 20.6594C277.901 20.9317 277.452 22.0563 277.25 22.5574C277.188 22.7095 277.32 22.7707 277.457 22.6566C278.353 21.9109 278.582 20.345 278.4 20.1181Z" fill="#FF8000"/>
<path d="M276.762 21.0608C274.896 21.8533 272.866 22.235 271.019 22.235C268.284 22.235 265.634 21.486 263.492 20.2392C263.306 20.1291 263.166 20.3213 263.322 20.4619C265.307 22.2554 267.93 23.3338 270.844 23.3338C272.924 23.3338 275.336 22.6798 277.003 21.452C277.278 21.2483 277.044 20.9427 276.762 21.0608Z" fill="#FF8000"/>
<path d="M263.408 18.8698C263.246 18.6444 263.074 18.4624 263.074 18.0474V16.6648C263.074 16.0801 263.116 15.5423 262.684 15.1389C262.343 14.8123 261.78 14.6975 261.347 14.6975C260.504 14.6975 259.563 15.0119 259.364 16.055C259.343 16.1664 259.425 16.2248 259.495 16.2411L260.358 16.3334C260.437 16.33 260.496 16.2513 260.511 16.1711C260.584 15.8119 260.887 15.6387 261.225 15.6387C261.407 15.6387 261.613 15.706 261.722 15.8696C261.846 16.0516 261.829 16.3015 261.829 16.512V16.6261C261.315 16.6859 260.643 16.7232 260.161 16.9351C259.607 17.1735 259.215 17.6638 259.215 18.3836C259.215 19.3051 259.796 19.7662 260.542 19.7662C261.174 19.7662 261.519 19.6175 262.005 19.1211C262.166 19.3547 262.219 19.4688 262.514 19.7132C262.58 19.7486 262.665 19.7445 262.724 19.6929L262.726 19.6942C262.903 19.538 263.224 19.2562 263.406 19.1055C263.478 19.0443 263.466 18.9493 263.408 18.8698ZM261.829 17.5286C261.829 17.8743 261.838 18.1622 261.663 18.4692C261.522 18.7191 261.299 18.8719 261.049 18.8719C260.709 18.8719 260.511 18.6131 260.511 18.2294C260.511 17.4736 261.188 17.3364 261.829 17.3364V17.5286Z" fill="#FFFBF7"/>
</svg>
