<svg width="313" height="217" viewBox="0 0 313 217" fill="none" xmlns="http://www.w3.org/2000/svg">
<rect width="312.123" height="216.865" rx="15" fill="url(#paint0_linear_32_4406)"/>
<g clip-path="url(#clip0_32_4406)">
<path d="M129.963 81.1813C123.581 92.0589 127.638 108.566 134.696 118.575C138.219 123.579 141.786 128.071 146.671 128.071C146.763 128.071 146.856 128.07 146.95 128.066C149.245 127.976 150.904 127.282 152.508 126.611C154.308 125.858 156.17 125.078 159.091 125.078C161.87 125.078 163.643 125.832 165.358 126.561C167.048 127.279 168.789 128.022 171.361 127.975C176.864 127.874 180.243 123.027 183.224 118.751C186.334 114.287 187.895 109.952 188.421 108.295L188.443 108.229C188.543 107.935 188.401 107.614 188.114 107.484C188.106 107.48 188.077 107.468 188.069 107.465C187.099 107.076 178.599 103.372 178.51 93.2776C178.427 85.0763 184.887 80.7332 186.182 79.946L186.243 79.9091C186.383 79.8204 186.481 79.6796 186.514 79.5187C186.547 79.358 186.512 79.1907 186.418 79.0556C181.959 72.6469 175.125 71.681 172.374 71.5648C171.975 71.5257 171.562 71.506 171.149 71.506C167.917 71.506 164.821 72.7047 162.334 73.6679C160.617 74.3328 159.134 74.907 158.112 74.907C156.962 74.907 155.471 74.3257 153.744 73.6528C151.435 72.7526 148.817 71.7326 146.046 71.7326C145.98 71.7326 145.915 71.7333 145.851 71.7345C139.408 71.8276 133.32 75.4479 129.963 81.1813Z" fill="#FEFAF6"/>
<path d="M172.378 53.9251C168.476 54.0812 163.795 56.4401 160.998 59.6583C158.62 62.3633 156.298 66.8733 156.91 71.4193C156.948 71.7038 157.184 71.9233 157.475 71.9454C157.738 71.9656 158.007 71.9758 158.275 71.9761C162.09 71.9761 166.206 69.9031 169.016 66.5653C171.975 63.0408 173.47 58.5176 173.018 54.4661C172.982 54.1486 172.698 53.9128 172.378 53.9251Z" fill="#FEFAF6"/>
</g>
<g clip-path="url(#clip1_32_4406)">
<path d="M284.803 16.5935C283.663 18.3735 284.388 21.0747 285.648 22.7125C286.277 23.5314 286.914 24.2664 287.787 24.2664C287.803 24.2664 287.819 24.2661 287.836 24.2655C288.246 24.2508 288.542 24.1372 288.829 24.0275C289.15 23.9041 289.483 23.7766 290.004 23.7766C290.501 23.7766 290.817 23.9 291.123 24.0193C291.425 24.1368 291.736 24.2584 292.195 24.2506C293.178 24.2341 293.781 23.441 294.314 22.7413C294.869 22.0107 295.148 21.3014 295.242 21.0303L295.246 21.0195C295.264 20.9714 295.238 20.9188 295.187 20.8976C295.186 20.897 295.18 20.895 295.179 20.8945C295.006 20.8308 293.488 20.2247 293.472 18.5729C293.457 17.2308 294.611 16.5202 294.842 16.3914L294.853 16.3853C294.878 16.3708 294.895 16.3478 294.901 16.3214C294.907 16.2951 294.901 16.2678 294.884 16.2456C294.088 15.1969 292.868 15.0389 292.376 15.0199C292.305 15.0135 292.231 15.0103 292.157 15.0103C291.58 15.0103 291.028 15.2064 290.583 15.364C290.277 15.4728 290.012 15.5668 289.829 15.5668C289.624 15.5668 289.358 15.4717 289.049 15.3616C288.637 15.2142 288.17 15.0473 287.675 15.0473C287.663 15.0473 287.651 15.0474 287.64 15.0476C286.489 15.0629 285.402 15.6553 284.803 16.5935Z" fill="#FEFAF6"/>
<path d="M292.377 12.1335C291.681 12.159 290.845 12.545 290.345 13.0716C289.921 13.5143 289.506 14.2523 289.615 14.9962C289.622 15.0427 289.664 15.0787 289.716 15.0823C289.763 15.0856 289.811 15.0872 289.859 15.0873C290.54 15.0873 291.275 14.7481 291.777 14.2019C292.306 13.6252 292.573 12.885 292.492 12.222C292.485 12.1701 292.435 12.1315 292.377 12.1335Z" fill="#FEFAF6"/>
</g>
<path d="M64.3691 162.476H57.8118L56.6039 165.819H54.5332L59.9688 150.871H62.2337L67.6477 165.819H65.577L64.3691 162.476ZM63.8083 160.88L61.0905 153.287L58.3726 160.88H63.8083Z" fill="white"/>
<path d="M71.9795 156.177C72.3678 155.502 72.943 154.941 73.7051 154.495C74.4816 154.035 75.3804 153.805 76.4014 153.805C77.4511 153.805 78.4002 154.056 79.2486 154.56C80.1114 155.063 80.7872 155.775 81.2762 156.695C81.7651 157.601 82.0095 158.658 82.0095 159.866C82.0095 161.059 81.7651 162.124 81.2762 163.058C80.7872 163.993 80.1114 164.719 79.2486 165.237C78.4002 165.755 77.4511 166.013 76.4014 166.013C75.3948 166.013 74.5032 165.79 73.7267 165.345C72.9646 164.885 72.3822 164.317 71.9795 163.641V171.427H70.0167V153.999H71.9795V156.177ZM80.0035 159.866C80.0035 158.974 79.8238 158.198 79.4643 157.536C79.1048 156.875 78.6159 156.372 77.9975 156.026C77.3936 155.681 76.7249 155.509 75.9915 155.509C75.2725 155.509 74.6039 155.689 73.9855 156.048C73.3816 156.393 72.8927 156.904 72.5188 157.58C72.1593 158.241 71.9795 159.01 71.9795 159.888C71.9795 160.779 72.1593 161.563 72.5188 162.239C72.8927 162.9 73.3816 163.411 73.9855 163.77C74.6039 164.115 75.2725 164.288 75.9915 164.288C76.7249 164.288 77.3936 164.115 77.9975 163.77C78.6159 163.411 79.1048 162.9 79.4643 162.239C79.8238 161.563 80.0035 160.772 80.0035 159.866Z" fill="white"/>
<path d="M86.5561 156.177C86.9443 155.502 87.5195 154.941 88.2817 154.495C89.0582 154.035 89.9569 153.805 90.9779 153.805C92.0276 153.805 92.9767 154.056 93.8251 154.56C94.6879 155.063 95.3638 155.775 95.8527 156.695C96.3416 157.601 96.5861 158.658 96.5861 159.866C96.5861 161.059 96.3416 162.124 95.8527 163.058C95.3638 163.993 94.6879 164.719 93.8251 165.237C92.9767 165.755 92.0276 166.013 90.9779 166.013C89.9713 166.013 89.0797 165.79 88.3032 165.345C87.5411 164.885 86.9587 164.317 86.5561 163.641V171.427H84.5932V153.999H86.5561V156.177ZM94.5801 159.866C94.5801 158.974 94.4003 158.198 94.0408 157.536C93.6813 156.875 93.1924 156.372 92.5741 156.026C91.9701 155.681 91.3014 155.509 90.5681 155.509C89.8491 155.509 89.1804 155.689 88.5621 156.048C87.9581 156.393 87.4692 156.904 87.0953 157.58C86.7358 158.241 86.5561 159.01 86.5561 159.888C86.5561 160.779 86.7358 161.563 87.0953 162.239C87.4692 162.9 87.9581 163.411 88.5621 163.77C89.1804 164.115 89.8491 164.288 90.5681 164.288C91.3014 164.288 91.9701 164.115 92.5741 163.77C93.1924 163.411 93.6813 162.9 94.0408 162.239C94.4003 161.563 94.5801 160.772 94.5801 159.866Z" fill="white"/>
<path d="M109.687 165.97C108.695 165.97 107.803 165.798 107.013 165.453C106.236 165.093 105.625 164.604 105.179 163.986C104.733 163.353 104.503 162.627 104.489 161.807H106.581C106.653 162.512 106.941 163.109 107.444 163.598C107.962 164.072 108.709 164.309 109.687 164.309C110.622 164.309 111.355 164.079 111.887 163.619C112.434 163.145 112.707 162.541 112.707 161.807C112.707 161.232 112.549 160.765 112.233 160.405C111.916 160.046 111.521 159.772 111.046 159.586C110.572 159.399 109.932 159.197 109.126 158.982C108.134 158.723 107.336 158.464 106.732 158.205C106.143 157.946 105.632 157.544 105.201 156.997C104.784 156.436 104.575 155.689 104.575 154.754C104.575 153.934 104.784 153.208 105.201 152.575C105.618 151.943 106.2 151.454 106.948 151.109C107.71 150.763 108.58 150.591 109.558 150.591C110.967 150.591 112.117 150.943 113.009 151.648C113.915 152.352 114.425 153.287 114.54 154.452H112.383C112.312 153.877 112.01 153.373 111.478 152.942C110.945 152.496 110.241 152.273 109.364 152.273C108.544 152.273 107.875 152.489 107.358 152.92C106.84 153.337 106.581 153.927 106.581 154.689C106.581 155.236 106.732 155.681 107.034 156.026C107.351 156.372 107.732 156.638 108.177 156.825C108.638 156.997 109.277 157.198 110.097 157.429C111.089 157.702 111.887 157.975 112.491 158.248C113.095 158.507 113.613 158.917 114.044 159.478C114.476 160.024 114.691 160.772 114.691 161.721C114.691 162.454 114.497 163.145 114.109 163.792C113.721 164.439 113.146 164.964 112.383 165.366C111.621 165.769 110.723 165.97 109.687 165.97Z" fill="white"/>
<path d="M119.974 155.617V162.584C119.974 163.159 120.096 163.569 120.341 163.813C120.585 164.043 121.01 164.158 121.614 164.158H123.059V165.819H121.29C120.197 165.819 119.377 165.568 118.831 165.064C118.285 164.561 118.011 163.734 118.011 162.584V155.617H116.48V153.999H118.011V151.022H119.974V153.999H123.059V155.617H119.974Z" fill="white"/>
<path d="M130.592 166.013C129.485 166.013 128.478 165.762 127.572 165.258C126.681 164.755 125.976 164.043 125.459 163.123C124.955 162.188 124.704 161.11 124.704 159.888C124.704 158.68 124.962 157.615 125.48 156.695C126.012 155.76 126.731 155.049 127.637 154.56C128.543 154.056 129.557 153.805 130.678 153.805C131.8 153.805 132.814 154.056 133.72 154.56C134.626 155.049 135.338 155.753 135.855 156.674C136.387 157.594 136.653 158.665 136.653 159.888C136.653 161.11 136.38 162.188 135.834 163.123C135.302 164.043 134.575 164.755 133.655 165.258C132.735 165.762 131.714 166.013 130.592 166.013ZM130.592 164.288C131.297 164.288 131.958 164.122 132.577 163.792C133.195 163.461 133.691 162.965 134.065 162.303C134.453 161.642 134.647 160.837 134.647 159.888C134.647 158.938 134.46 158.133 134.087 157.472C133.713 156.81 133.224 156.321 132.62 156.005C132.016 155.674 131.362 155.509 130.657 155.509C129.938 155.509 129.276 155.674 128.672 156.005C128.083 156.321 127.608 156.81 127.249 157.472C126.889 158.133 126.71 158.938 126.71 159.888C126.71 160.851 126.882 161.663 127.227 162.325C127.587 162.986 128.061 163.482 128.651 163.813C129.24 164.13 129.888 164.288 130.592 164.288Z" fill="white"/>
<path d="M141.197 155.919C141.542 155.243 142.031 154.718 142.664 154.344C143.311 153.97 144.095 153.783 145.015 153.783V155.811H144.497C142.297 155.811 141.197 157.004 141.197 159.391V165.819H139.234V153.999H141.197V155.919Z" fill="white"/>
<path d="M158.066 159.456C158.066 159.83 158.044 160.225 158.001 160.642H148.553C148.625 161.807 149.021 162.72 149.74 163.382C150.473 164.029 151.357 164.352 152.393 164.352C153.241 164.352 153.946 164.158 154.507 163.77C155.082 163.367 155.484 162.835 155.715 162.174H157.828C157.512 163.31 156.879 164.237 155.93 164.956C154.981 165.661 153.802 166.013 152.393 166.013C151.271 166.013 150.265 165.762 149.373 165.258C148.496 164.755 147.806 164.043 147.302 163.123C146.799 162.188 146.547 161.11 146.547 159.888C146.547 158.665 146.792 157.594 147.281 156.674C147.77 155.753 148.453 155.049 149.33 154.56C150.221 154.056 151.242 153.805 152.393 153.805C153.514 153.805 154.507 154.049 155.369 154.538C156.232 155.027 156.894 155.703 157.354 156.566C157.828 157.414 158.066 158.378 158.066 159.456ZM156.038 159.046C156.038 158.299 155.873 157.659 155.542 157.127C155.211 156.58 154.758 156.17 154.183 155.897C153.622 155.609 152.997 155.466 152.307 155.466C151.314 155.466 150.466 155.782 149.761 156.415C149.071 157.047 148.676 157.925 148.575 159.046H156.038Z" fill="white"/>
<path d="M177.947 165.819L175.984 163.835C175.251 164.597 174.467 165.165 173.633 165.539C172.799 165.898 171.857 166.078 170.807 166.078C169.772 166.078 168.852 165.891 168.046 165.517C167.256 165.143 166.637 164.611 166.191 163.921C165.76 163.231 165.544 162.426 165.544 161.505C165.544 160.456 165.839 159.535 166.429 158.744C167.033 157.939 167.917 157.306 169.082 156.846C168.622 156.3 168.291 155.796 168.09 155.336C167.888 154.876 167.788 154.373 167.788 153.826C167.788 153.194 167.946 152.626 168.262 152.122C168.593 151.605 169.06 151.202 169.664 150.914C170.268 150.627 170.966 150.483 171.756 150.483C172.533 150.483 173.209 150.634 173.784 150.936C174.359 151.238 174.791 151.662 175.078 152.209C175.366 152.741 175.495 153.337 175.467 153.999H173.504C173.518 153.409 173.353 152.949 173.008 152.618C172.662 152.273 172.217 152.101 171.67 152.101C171.095 152.101 170.628 152.266 170.268 152.597C169.923 152.913 169.75 153.323 169.75 153.826C169.75 154.258 169.866 154.675 170.096 155.077C170.34 155.48 170.743 155.976 171.304 156.566L175.79 161.074L176.178 160.47L177.645 158.011H179.759L177.99 161.074C177.746 161.505 177.458 161.958 177.127 162.433L180.514 165.819H177.947ZM170.807 164.396C171.584 164.396 172.281 164.245 172.9 163.943C173.532 163.641 174.129 163.173 174.69 162.541L170.268 158.097C168.428 158.802 167.507 159.916 167.507 161.441C167.507 162.289 167.809 162.994 168.413 163.554C169.031 164.115 169.83 164.396 170.807 164.396Z" fill="white"/>
<path d="M189.117 152.079C188.743 152.079 188.427 151.95 188.168 151.691C187.909 151.432 187.78 151.116 187.78 150.742C187.78 150.368 187.909 150.052 188.168 149.793C188.427 149.534 188.743 149.405 189.117 149.405C189.477 149.405 189.779 149.534 190.023 149.793C190.282 150.052 190.411 150.368 190.411 150.742C190.411 151.116 190.282 151.432 190.023 151.691C189.779 151.95 189.477 152.079 189.117 152.079ZM190.066 153.999V165.819H188.103V153.999H190.066Z" fill="white"/>
<path d="M202.665 150.785V152.381H198.567V165.819H196.604V152.381H192.484V150.785H202.665Z" fill="white"/>
<path d="M215.564 153.999V165.819H213.601V164.072C213.228 164.676 212.703 165.151 212.027 165.496C211.365 165.826 210.632 165.992 209.827 165.992C208.906 165.992 208.08 165.805 207.346 165.431C206.613 165.043 206.03 164.468 205.599 163.705C205.182 162.943 204.973 162.016 204.973 160.923V153.999H206.915V160.664C206.915 161.829 207.21 162.728 207.799 163.36C208.389 163.979 209.194 164.288 210.215 164.288C211.265 164.288 212.092 163.964 212.695 163.317C213.299 162.67 213.601 161.728 213.601 160.491V153.999H215.564Z" fill="white"/>
<path d="M224.638 153.783C226.076 153.783 227.24 154.222 228.132 155.099C229.023 155.962 229.469 157.213 229.469 158.852V165.819H227.528V159.133C227.528 157.953 227.233 157.055 226.644 156.436C226.054 155.804 225.249 155.487 224.228 155.487C223.192 155.487 222.366 155.811 221.747 156.458C221.143 157.105 220.841 158.047 220.841 159.284V165.819H218.878V153.999H220.841V155.681C221.23 155.077 221.754 154.61 222.416 154.279C223.092 153.949 223.832 153.783 224.638 153.783Z" fill="white"/>
<path d="M243.461 159.456C243.461 159.83 243.439 160.225 243.396 160.642H233.948C234.02 161.807 234.416 162.72 235.135 163.382C235.868 164.029 236.752 164.352 237.788 164.352C238.636 164.352 239.341 164.158 239.902 163.77C240.477 163.367 240.879 162.835 241.109 162.174H243.223C242.907 163.31 242.274 164.237 241.325 164.956C240.376 165.661 239.197 166.013 237.788 166.013C236.666 166.013 235.659 165.762 234.768 165.258C233.891 164.755 233.2 164.043 232.697 163.123C232.194 162.188 231.942 161.11 231.942 159.888C231.942 158.665 232.187 157.594 232.676 156.674C233.165 155.753 233.848 155.049 234.725 154.56C235.616 154.056 236.637 153.805 237.788 153.805C238.909 153.805 239.902 154.049 240.764 154.538C241.627 155.027 242.289 155.703 242.749 156.566C243.223 157.414 243.461 158.378 243.461 159.456ZM241.433 159.046C241.433 158.299 241.268 157.659 240.937 157.127C240.606 156.58 240.153 156.17 239.578 155.897C239.017 155.609 238.392 155.466 237.701 155.466C236.709 155.466 235.861 155.782 235.156 156.415C234.466 157.047 234.07 157.925 233.97 159.046H241.433Z" fill="white"/>
<path d="M250.236 166.013C249.33 166.013 248.518 165.862 247.799 165.56C247.08 165.244 246.512 164.813 246.095 164.266C245.678 163.705 245.447 163.065 245.404 162.346H247.432C247.489 162.936 247.763 163.418 248.252 163.792C248.755 164.166 249.409 164.352 250.214 164.352C250.962 164.352 251.552 164.187 251.983 163.856C252.415 163.526 252.63 163.109 252.63 162.605C252.63 162.088 252.4 161.707 251.94 161.462C251.48 161.203 250.768 160.952 249.805 160.707C248.927 160.477 248.208 160.247 247.648 160.017C247.101 159.772 246.627 159.42 246.224 158.96C245.836 158.485 245.642 157.867 245.642 157.105C245.642 156.501 245.821 155.947 246.181 155.444C246.54 154.941 247.051 154.545 247.712 154.258C248.374 153.956 249.129 153.805 249.977 153.805C251.286 153.805 252.343 154.136 253.148 154.797C253.953 155.458 254.385 156.364 254.442 157.515H252.479C252.436 156.896 252.184 156.4 251.724 156.026C251.279 155.653 250.675 155.466 249.912 155.466C249.208 155.466 248.647 155.617 248.23 155.919C247.813 156.221 247.604 156.616 247.604 157.105C247.604 157.493 247.727 157.817 247.971 158.076C248.23 158.32 248.546 158.521 248.92 158.68C249.309 158.823 249.841 158.989 250.516 159.176C251.365 159.406 252.055 159.636 252.587 159.866C253.119 160.082 253.572 160.412 253.946 160.858C254.334 161.304 254.536 161.886 254.55 162.605C254.55 163.252 254.37 163.835 254.011 164.352C253.651 164.87 253.141 165.28 252.479 165.582C251.832 165.87 251.084 166.013 250.236 166.013Z" fill="white"/>
<defs>
<linearGradient id="paint0_linear_32_4406" x1="184.962" y1="-52.5733" x2="323.416" y2="238.851" gradientUnits="userSpaceOnUse">
<stop stop-color="#00E0FF"/>
<stop offset="1" stop-color="#0047FF"/>
</linearGradient>
<clipPath id="clip0_32_4406">
<rect width="75.4946" height="74.1465" fill="white" transform="translate(119.88 53.9246)"/>
</clipPath>
<clipPath id="clip1_32_4406">
<rect width="13.4812" height="12.1331" fill="white" transform="translate(283.002 12.1333)"/>
</clipPath>
</defs>
</svg>
