<svg width="308" height="214" viewBox="0 0 308 214" fill="none" xmlns="http://www.w3.org/2000/svg">
<rect width="308" height="214" rx="15" fill="url(#paint0_radial_32_4228)"/>
<path d="M154.232 67.7852C141.962 67.7748 132.01 77.7129 132 89.9824C131.99 102.252 141.928 112.204 154.197 112.214C166.465 112.204 176.41 102.267 176.429 89.9996C176.429 77.737 166.494 67.7955 154.232 67.7852ZM154.197 108.517C143.97 108.517 135.68 100.226 135.68 89.9996C135.68 79.7727 143.97 71.4819 154.197 71.4819C164.421 71.4922 172.705 79.7762 172.715 89.9996C172.715 100.226 164.424 108.517 154.197 108.517Z" fill="white"/>
<path d="M160.197 88.9165C161.682 88.0792 162.485 86.4028 162.208 84.7212C161.864 82.125 158.77 81.1449 156.328 80.9386V77.0356H153.921V80.9042H152.305V77.0356H149.898V80.9042H145.049V83.3974H146.854C147.662 83.3974 148.058 83.6381 148.058 84.2914V95.0032C148.058 95.8972 147.611 96.1724 147.129 96.1724H145.29V98.7171H149.966V102.672H152.391V98.7171H154.007V102.672H156.362V98.7171H156.878C161.83 98.7171 163.481 96.2928 163.481 92.9916C163.441 91.0451 162.091 89.3705 160.197 88.9165ZM152.305 83.5521H154.024C155.228 83.5521 157.6 83.7585 157.6 85.7185C157.683 86.9978 156.756 88.1188 155.485 88.2804H152.305V83.5521ZM154.97 95.9316V95.9144H152.305V90.7562H155.4C156.122 90.7562 158.838 90.997 158.838 92.9227C158.838 94.8484 157.549 95.9316 154.97 95.9316Z" fill="white"/>
<path d="M134.816 148.256C135.221 148.32 135.589 148.485 135.92 148.752C136.261 149.019 136.528 149.349 136.72 149.744C136.923 150.139 137.024 150.56 137.024 151.008C137.024 151.573 136.88 152.085 136.592 152.544C136.304 152.992 135.883 153.349 135.328 153.616C134.784 153.872 134.139 154 133.392 154H129.232V142.848H133.232C133.989 142.848 134.635 142.976 135.168 143.232C135.701 143.477 136.101 143.813 136.368 144.24C136.635 144.667 136.768 145.147 136.768 145.68C136.768 146.341 136.587 146.891 136.224 147.328C135.872 147.755 135.403 148.064 134.816 148.256ZM130.688 147.664H133.136C133.819 147.664 134.347 147.504 134.72 147.184C135.093 146.864 135.28 146.421 135.28 145.856C135.28 145.291 135.093 144.848 134.72 144.528C134.347 144.208 133.808 144.048 133.104 144.048H130.688V147.664ZM133.264 152.8C133.989 152.8 134.555 152.629 134.96 152.288C135.365 151.947 135.568 151.472 135.568 150.864C135.568 150.245 135.355 149.76 134.928 149.408C134.501 149.045 133.931 148.864 133.216 148.864H130.688V152.8H133.264ZM139.797 143.808C139.519 143.808 139.285 143.712 139.093 143.52C138.901 143.328 138.805 143.093 138.805 142.816C138.805 142.539 138.901 142.304 139.093 142.112C139.285 141.92 139.519 141.824 139.797 141.824C140.063 141.824 140.287 141.92 140.469 142.112C140.661 142.304 140.757 142.539 140.757 142.816C140.757 143.093 140.661 143.328 140.469 143.52C140.287 143.712 140.063 143.808 139.797 143.808ZM140.501 145.232V154H139.045V145.232H140.501ZM144.758 146.432V151.6C144.758 152.027 144.849 152.331 145.03 152.512C145.211 152.683 145.526 152.768 145.974 152.768H147.046V154H145.734C144.923 154 144.315 153.813 143.91 153.44C143.505 153.067 143.302 152.453 143.302 151.6V146.432H142.166V145.232H143.302V143.024H144.758V145.232H147.046V146.432H144.758ZM148.266 149.6C148.266 148.693 148.447 147.904 148.81 147.232C149.173 146.549 149.674 146.021 150.314 145.648C150.965 145.275 151.706 145.088 152.538 145.088C153.615 145.088 154.501 145.349 155.194 145.872C155.898 146.395 156.362 147.12 156.586 148.048H155.018C154.869 147.515 154.575 147.093 154.138 146.784C153.711 146.475 153.178 146.32 152.538 146.32C151.706 146.32 151.034 146.608 150.522 147.184C150.01 147.749 149.754 148.555 149.754 149.6C149.754 150.656 150.01 151.472 150.522 152.048C151.034 152.624 151.706 152.912 152.538 152.912C153.178 152.912 153.711 152.763 154.138 152.464C154.565 152.165 154.858 151.739 155.018 151.184H156.586C156.351 152.08 155.882 152.8 155.178 153.344C154.474 153.877 153.594 154.144 152.538 154.144C151.706 154.144 150.965 153.957 150.314 153.584C149.674 153.211 149.173 152.683 148.81 152C148.447 151.317 148.266 150.517 148.266 149.6ZM162.353 154.144C161.532 154.144 160.785 153.957 160.113 153.584C159.452 153.211 158.929 152.683 158.545 152C158.172 151.307 157.985 150.507 157.985 149.6C157.985 148.704 158.177 147.915 158.561 147.232C158.956 146.539 159.489 146.011 160.161 145.648C160.833 145.275 161.585 145.088 162.417 145.088C163.249 145.088 164.001 145.275 164.673 145.648C165.345 146.011 165.873 146.533 166.257 147.216C166.652 147.899 166.849 148.693 166.849 149.6C166.849 150.507 166.646 151.307 166.241 152C165.846 152.683 165.308 153.211 164.625 153.584C163.942 153.957 163.185 154.144 162.353 154.144ZM162.353 152.864C162.876 152.864 163.366 152.741 163.825 152.496C164.284 152.251 164.652 151.883 164.929 151.392C165.217 150.901 165.361 150.304 165.361 149.6C165.361 148.896 165.222 148.299 164.945 147.808C164.668 147.317 164.305 146.955 163.857 146.72C163.409 146.475 162.924 146.352 162.401 146.352C161.868 146.352 161.377 146.475 160.929 146.72C160.492 146.955 160.14 147.317 159.873 147.808C159.606 148.299 159.473 148.896 159.473 149.6C159.473 150.315 159.601 150.917 159.857 151.408C160.124 151.899 160.476 152.267 160.913 152.512C161.35 152.747 161.83 152.864 162.353 152.864ZM169.515 143.808C169.238 143.808 169.003 143.712 168.811 143.52C168.619 143.328 168.523 143.093 168.523 142.816C168.523 142.539 168.619 142.304 168.811 142.112C169.003 141.92 169.238 141.824 169.515 141.824C169.782 141.824 170.006 141.92 170.187 142.112C170.379 142.304 170.475 142.539 170.475 142.816C170.475 143.093 170.379 143.328 170.187 143.52C170.006 143.712 169.782 143.808 169.515 143.808ZM170.219 145.232V154H168.763V145.232H170.219ZM176.973 145.072C178.039 145.072 178.903 145.397 179.565 146.048C180.226 146.688 180.557 147.616 180.557 148.832V154H179.117V149.04C179.117 148.165 178.898 147.499 178.461 147.04C178.023 146.571 177.426 146.336 176.669 146.336C175.901 146.336 175.287 146.576 174.829 147.056C174.381 147.536 174.157 148.235 174.157 149.152V154H172.701V145.232H174.157V146.48C174.445 146.032 174.834 145.685 175.325 145.44C175.826 145.195 176.375 145.072 176.973 145.072Z" fill="white"/>
<defs>
<radialGradient id="paint0_radial_32_4228" cx="0" cy="0" r="1" gradientUnits="userSpaceOnUse" gradientTransform="translate(144.332) rotate(90) scale(214 308)">
<stop stop-color="#FF8000"/>
<stop offset="1" stop-color="#E34141"/>
</radialGradient>
</defs>
</svg>
