<svg width="308" height="214" viewBox="0 0 308 214" fill="none" xmlns="http://www.w3.org/2000/svg">
<rect width="308" height="214" rx="15" fill="url(#paint0_linear_32_4733)"/>
<path d="M154.173 96.7325L142 90.9417L154.173 112.215L166.346 90.9417L154.173 96.7325Z" fill="white"/>
<path d="M165.021 86.6265L154.173 67.7861L143.313 86.6482L154.173 81.4966L165.021 86.6265Z" fill="white"/>
<path d="M144.255 89.0926L154.173 93.7906L164.108 89.0848L154.173 84.3871L144.255 89.0926Z" fill="white"/>
<path d="M117.688 148.032V151.76H121.752V152.96H117.688V156.8H122.232V158H116.232V146.832H122.232V148.032H117.688ZM126.211 150.432V155.6C126.211 156.027 126.302 156.331 126.483 156.512C126.664 156.683 126.979 156.768 127.427 156.768H128.499V158H127.187C126.376 158 125.768 157.813 125.363 157.44C124.958 157.067 124.755 156.453 124.755 155.6V150.432H123.619V149.232H124.755V147.024H126.211V149.232H128.499V150.432H126.211ZM134.615 149.072C135.277 149.072 135.874 149.216 136.407 149.504C136.941 149.781 137.357 150.203 137.655 150.768C137.965 151.333 138.119 152.021 138.119 152.832V158H136.679V153.04C136.679 152.165 136.461 151.499 136.023 151.04C135.586 150.571 134.989 150.336 134.231 150.336C133.463 150.336 132.85 150.576 132.391 151.056C131.943 151.536 131.719 152.235 131.719 153.152V158H130.263V146.16H131.719V150.48C132.007 150.032 132.402 149.685 132.903 149.44C133.415 149.195 133.986 149.072 134.615 149.072ZM148.498 153.28C148.498 153.557 148.482 153.851 148.45 154.16H141.442C141.495 155.024 141.788 155.701 142.322 156.192C142.866 156.672 143.522 156.912 144.29 156.912C144.919 156.912 145.442 156.768 145.858 156.48C146.284 156.181 146.583 155.787 146.754 155.296H148.322C148.087 156.139 147.618 156.827 146.914 157.36C146.21 157.883 145.335 158.144 144.29 158.144C143.458 158.144 142.711 157.957 142.05 157.584C141.399 157.211 140.887 156.683 140.514 156C140.14 155.307 139.954 154.507 139.954 153.6C139.954 152.693 140.135 151.899 140.498 151.216C140.86 150.533 141.367 150.011 142.018 149.648C142.679 149.275 143.436 149.088 144.29 149.088C145.122 149.088 145.858 149.269 146.498 149.632C147.138 149.995 147.628 150.496 147.97 151.136C148.322 151.765 148.498 152.48 148.498 153.28ZM146.994 152.976C146.994 152.421 146.871 151.947 146.626 151.552C146.38 151.147 146.044 150.843 145.618 150.64C145.202 150.427 144.738 150.32 144.226 150.32C143.49 150.32 142.86 150.555 142.338 151.024C141.826 151.493 141.532 152.144 141.458 152.976H146.994ZM151.876 150.656C152.132 150.155 152.494 149.765 152.964 149.488C153.444 149.211 154.025 149.072 154.708 149.072V150.576H154.324C152.692 150.576 151.876 151.461 151.876 153.232V158H150.42V149.232H151.876V150.656ZM164.388 153.28C164.388 153.557 164.372 153.851 164.34 154.16H157.332C157.386 155.024 157.679 155.701 158.212 156.192C158.756 156.672 159.412 156.912 160.18 156.912C160.81 156.912 161.332 156.768 161.748 156.48C162.175 156.181 162.474 155.787 162.644 155.296H164.212C163.978 156.139 163.508 156.827 162.804 157.36C162.1 157.883 161.226 158.144 160.18 158.144C159.348 158.144 158.602 157.957 157.94 157.584C157.29 157.211 156.778 156.683 156.404 156C156.031 155.307 155.844 154.507 155.844 153.6C155.844 152.693 156.026 151.899 156.388 151.216C156.751 150.533 157.258 150.011 157.908 149.648C158.57 149.275 159.327 149.088 160.18 149.088C161.012 149.088 161.748 149.269 162.388 149.632C163.028 149.995 163.519 150.496 163.86 151.136C164.212 151.765 164.388 152.48 164.388 153.28ZM162.884 152.976C162.884 152.421 162.762 151.947 162.516 151.552C162.271 151.147 161.935 150.843 161.508 150.64C161.092 150.427 160.628 150.32 160.116 150.32C159.38 150.32 158.751 150.555 158.228 151.024C157.716 151.493 157.423 152.144 157.348 152.976H162.884ZM174.086 149.232V158H172.63V156.704C172.353 157.152 171.963 157.504 171.462 157.76C170.971 158.005 170.427 158.128 169.83 158.128C169.147 158.128 168.534 157.989 167.99 157.712C167.446 157.424 167.014 156.997 166.694 156.432C166.385 155.867 166.23 155.179 166.23 154.368V149.232H167.67V154.176C167.67 155.04 167.889 155.707 168.326 156.176C168.763 156.635 169.361 156.864 170.118 156.864C170.897 156.864 171.51 156.624 171.958 156.144C172.406 155.664 172.63 154.965 172.63 154.048V149.232H174.086ZM187.089 149.072C187.771 149.072 188.379 149.216 188.913 149.504C189.446 149.781 189.867 150.203 190.177 150.768C190.486 151.333 190.641 152.021 190.641 152.832V158H189.201V153.04C189.201 152.165 188.982 151.499 188.545 151.04C188.118 150.571 187.537 150.336 186.801 150.336C186.043 150.336 185.441 150.581 184.993 151.072C184.545 151.552 184.321 152.251 184.321 153.168V158H182.881V153.04C182.881 152.165 182.662 151.499 182.225 151.04C181.798 150.571 181.217 150.336 180.481 150.336C179.723 150.336 179.121 150.581 178.673 151.072C178.225 151.552 178.001 152.251 178.001 153.168V158H176.545V149.232H178.001V150.496C178.289 150.037 178.673 149.685 179.153 149.44C179.643 149.195 180.182 149.072 180.769 149.072C181.505 149.072 182.155 149.237 182.721 149.568C183.286 149.899 183.707 150.384 183.985 151.024C184.23 150.405 184.635 149.925 185.201 149.584C185.766 149.243 186.395 149.072 187.089 149.072Z" fill="white"/>
<defs>
<linearGradient id="paint0_linear_32_4733" x1="182.519" y1="-51.8788" x2="319.144" y2="235.696" gradientUnits="userSpaceOnUse">
<stop stop-color="#00E0FF"/>
<stop offset="1" stop-color="#0047FF"/>
</linearGradient>
</defs>
</svg>
