<svg width="313" height="217" viewBox="0 0 313 217" fill="none" xmlns="http://www.w3.org/2000/svg">
<rect width="312.123" height="216.865" rx="15" fill="url(#paint0_linear_32_4547)"/>
<g clip-path="url(#clip0_32_4547)">
<path d="M183.157 86.75L171.513 80.0253L155.56 91.945L171.512 103.865L183.196 97.1169C185.018 96.0101 186.105 94.0762 186.105 91.9453C186.105 89.8143 185.018 87.8805 183.157 86.75Z" fill="#FF9100"/>
<path d="M159.594 91.9455C159.576 91.9679 145.488 110.081 145.477 110.095L127.126 124.548C125.996 123.418 125.311 121.886 125.311 120.192V63.5991C125.311 61.9053 125.996 60.3725 127.126 59.2433L145.477 73.7957C145.488 73.8103 159.576 91.923 159.594 91.9455Z" fill="#25D9F8"/>
<path d="M159.593 91.9458L155.56 97.1486V86.7427L159.593 91.9458Z" fill="#00C0F1"/>
<path d="M171.534 80.0069L159.595 91.9456L127.127 59.2435C127.53 58.8804 127.934 58.598 128.377 58.3157C130.313 57.2268 132.612 57.267 134.508 58.4368L155.562 70.8111L171.534 80.0069Z" fill="#7FE881"/>
<path d="M171.532 80.0067L159.593 91.9454L155.56 87.9121V70.8109L171.532 80.0067Z" fill="#5BC980"/>
<path d="M171.534 103.883L155.562 113.08L134.468 125.395C133.5 125.959 132.451 126.282 131.362 126.282C130.354 126.282 129.345 125.999 128.377 125.475C127.934 125.193 127.53 124.911 127.127 124.548L159.595 91.9451L171.534 103.883Z" fill="#FF637B"/>
<path d="M171.532 103.883L155.56 113.08V95.9784L159.593 91.9451L171.532 103.883Z" fill="#E63950"/>
</g>
<g clip-path="url(#clip1_32_4547)">
<path d="M289.7 17.9952L287.189 16.5448L283.748 19.1157L287.189 21.6866L289.709 20.2312C290.102 19.9925 290.336 19.5754 290.336 19.1158C290.336 18.6562 290.102 18.2391 289.7 17.9952Z" fill="#FF9100"/>
<path d="M284.617 19.1152C284.613 19.12 281.575 23.0267 281.572 23.0298L277.614 26.1471C277.371 25.9035 277.223 25.573 277.223 25.2075V13.0013C277.223 12.6359 277.371 12.3053 277.614 12.0618L281.572 15.2005C281.575 15.2037 284.613 19.1103 284.617 19.1152Z" fill="#25D9F8"/>
<path d="M284.618 19.1152L283.748 20.2373V17.9929L284.618 19.1152Z" fill="#00C0F1"/>
<path d="M287.192 16.5405L284.617 19.1155L277.614 12.0621C277.701 11.9838 277.788 11.9229 277.884 11.862C278.301 11.6271 278.797 11.6358 279.206 11.8881L283.747 14.5571L287.192 16.5405Z" fill="#7FE881"/>
<path d="M287.193 16.5407L284.618 19.1157L283.748 18.2457V14.5573L287.193 16.5407Z" fill="#5BC980"/>
<path d="M287.192 21.6907L283.747 23.6741L279.198 26.3303C278.989 26.4521 278.763 26.5217 278.528 26.5217C278.31 26.5217 278.093 26.4608 277.884 26.3477C277.788 26.2868 277.701 26.2259 277.614 26.1476L284.617 19.1157L287.192 21.6907Z" fill="#FF637B"/>
<path d="M287.193 21.6907L283.748 23.6741V19.9856L284.618 19.1157L287.193 21.6907Z" fill="#E63950"/>
</g>
<path d="M105.321 162.295H111.687C111.687 162.409 111.691 162.567 111.698 162.771C111.72 163.306 111.731 163.668 111.731 163.857C111.731 166.187 111.083 167.998 109.788 169.287C108.493 170.577 106.667 171.222 104.311 171.222C102.994 171.222 101.82 171.022 100.788 170.622C99.756 170.223 98.8523 169.619 98.0767 168.812C97.3157 168.013 96.7303 167.074 96.3205 165.995C95.918 164.916 95.7168 163.762 95.7168 162.533C95.7168 161.281 95.9217 160.127 96.3315 159.071C96.7486 158.015 97.3632 157.084 98.1755 156.277C98.9584 155.485 99.8768 154.881 100.93 154.466C101.984 154.052 103.111 153.844 104.311 153.844C105.577 153.844 106.708 154.082 107.703 154.557C108.705 155.032 109.598 155.76 110.381 156.74L108.471 158.223C107.93 157.574 107.319 157.091 106.638 156.774C105.958 156.458 105.197 156.299 104.355 156.299C102.614 156.299 101.19 156.876 100.085 158.03C98.9877 159.177 98.4389 160.67 98.4389 162.51C98.4389 164.381 98.9877 165.901 100.085 167.07C101.19 168.231 102.621 168.812 104.377 168.812C105.87 168.812 107.044 168.454 107.9 167.737C108.757 167.021 109.185 166.044 109.185 164.807V164.569H105.321V162.295Z" fill="#FFFBF7"/>
<path d="M122.466 165.452C122.466 164.456 122.155 163.615 121.533 162.929C120.911 162.235 120.15 161.888 119.25 161.888C118.357 161.888 117.596 162.235 116.967 162.929C116.345 163.615 116.034 164.456 116.034 165.452C116.034 166.448 116.345 167.292 116.967 167.986C117.596 168.673 118.357 169.016 119.25 169.016C120.143 169.016 120.9 168.673 121.522 167.986C122.151 167.292 122.466 166.448 122.466 165.452ZM113.52 165.429C113.52 164.645 113.663 163.906 113.948 163.212C114.241 162.51 114.658 161.888 115.2 161.345C115.734 160.81 116.348 160.399 117.044 160.112C117.739 159.825 118.467 159.682 119.228 159.682C120.011 159.682 120.746 159.825 121.434 160.112C122.129 160.399 122.751 160.821 123.3 161.379C123.849 161.93 124.266 162.552 124.551 163.246C124.837 163.94 124.979 164.668 124.979 165.429C124.979 166.221 124.837 166.964 124.551 167.658C124.273 168.352 123.863 168.967 123.322 169.502C122.751 170.068 122.118 170.494 121.423 170.781C120.728 171.075 119.996 171.222 119.228 171.222C118.474 171.222 117.75 171.075 117.055 170.781C116.359 170.494 115.741 170.075 115.2 169.525C114.651 168.967 114.234 168.341 113.948 167.647C113.663 166.953 113.52 166.214 113.52 165.429Z" fill="#FFFBF7"/>
<path d="M135.681 165.452C135.681 164.456 135.37 163.615 134.748 162.929C134.126 162.235 133.365 161.888 132.465 161.888C131.572 161.888 130.811 162.235 130.182 162.929C129.56 163.615 129.249 164.456 129.249 165.452C129.249 166.448 129.56 167.292 130.182 167.986C130.811 168.673 131.572 169.016 132.465 169.016C133.358 169.016 134.115 168.673 134.737 167.986C135.367 167.292 135.681 166.448 135.681 165.452ZM126.736 165.429C126.736 164.645 126.878 163.906 127.164 163.212C127.456 162.51 127.873 161.888 128.415 161.345C128.949 160.81 129.564 160.399 130.259 160.112C130.954 159.825 131.682 159.682 132.443 159.682C133.226 159.682 133.962 159.825 134.649 160.112C135.345 160.399 135.967 160.821 136.515 161.379C137.064 161.93 137.481 162.552 137.767 163.246C138.052 163.94 138.195 164.668 138.195 165.429C138.195 166.221 138.052 166.964 137.767 167.658C137.489 168.352 137.079 168.967 136.537 169.502C135.967 170.068 135.334 170.494 134.638 170.781C133.943 171.075 133.212 171.222 132.443 171.222C131.689 171.222 130.965 171.075 130.27 170.781C129.575 170.494 128.956 170.075 128.415 169.525C127.866 168.967 127.449 168.341 127.164 167.647C126.878 166.953 126.736 166.214 126.736 165.429Z" fill="#FFFBF7"/>
<path d="M148.194 165.384C148.194 164.275 147.942 163.412 147.437 162.793C146.939 162.175 146.24 161.866 145.34 161.866C144.44 161.866 143.73 162.186 143.211 162.827C142.699 163.461 142.443 164.343 142.443 165.475C142.443 166.613 142.691 167.492 143.189 168.111C143.687 168.729 144.389 169.038 145.296 169.038C146.152 169.038 146.848 168.703 147.382 168.031C147.923 167.36 148.194 166.478 148.194 165.384ZM150.51 170.113C150.51 172.21 150.104 173.685 149.292 174.537C148.479 175.397 147.111 175.827 145.187 175.827C143.752 175.827 142.607 175.514 141.751 174.888C140.895 174.269 140.459 173.443 140.445 172.41L143.002 172.399C143.039 172.859 143.247 173.209 143.628 173.451C144.008 173.692 144.543 173.813 145.23 173.813C146.248 173.813 146.979 173.583 147.426 173.123C147.872 172.663 148.099 171.893 148.106 170.815L148.128 169.389C147.704 170.008 147.206 170.468 146.635 170.769C146.072 171.071 145.424 171.222 144.693 171.222C143.222 171.222 142.062 170.705 141.213 169.672C140.372 168.631 139.951 167.209 139.951 165.407C139.951 163.695 140.383 162.314 141.246 161.266C142.11 160.21 143.236 159.682 144.627 159.682C145.476 159.682 146.2 159.867 146.8 160.236C147.407 160.598 147.85 161.123 148.128 161.809V160.055H150.51V170.113Z" fill="#FFFBF7"/>
<path d="M153.913 170.781V153.245H156.295V170.781H153.913Z" fill="#FFFBF7"/>
<path d="M169.729 165.78H161.409C161.468 166.783 161.757 167.568 162.277 168.133C162.796 168.691 163.488 168.971 164.351 168.971C165.119 168.971 165.76 168.805 166.272 168.473C166.784 168.141 167.23 167.605 167.611 166.866L169.62 168.02C169.034 169.099 168.31 169.902 167.446 170.43C166.583 170.958 165.569 171.222 164.406 171.222C162.738 171.222 161.409 170.698 160.422 169.649C159.434 168.601 158.94 167.202 158.94 165.452C158.94 163.77 159.448 162.39 160.465 161.311C161.49 160.225 162.803 159.682 164.406 159.682C166.082 159.682 167.388 160.176 168.324 161.164C169.261 162.152 169.729 163.536 169.729 165.316V165.78ZM167.26 164.128C167.165 163.359 166.879 162.774 166.404 162.375C165.928 161.967 165.277 161.764 164.45 161.764C163.667 161.764 163.038 161.96 162.562 162.352C162.086 162.744 161.753 163.336 161.563 164.128H167.26Z" fill="#FFFBF7"/>
<path d="M181.814 161.141H182.484C183.933 161.141 184.899 160.979 185.381 160.655C185.864 160.331 186.106 159.757 186.106 158.935C186.106 158.053 185.846 157.431 185.327 157.069C184.814 156.706 183.867 156.525 182.484 156.525H181.814V161.141ZM181.65 163.348V170.781H179.202V154.217H183.153C184.324 154.217 185.184 154.285 185.733 154.421C186.289 154.549 186.772 154.764 187.182 155.066C187.686 155.451 188.082 155.971 188.367 156.627C188.652 157.276 188.795 157.992 188.795 158.777C188.795 159.561 188.652 160.285 188.367 160.949C188.082 161.613 187.686 162.133 187.182 162.51C186.772 162.812 186.289 163.027 185.733 163.155C185.184 163.284 184.324 163.348 183.153 163.348H181.65Z" fill="#FFFBF7"/>
<path d="M191.078 170.781V153.245H193.46V170.781H191.078Z" fill="#FFFBF7"/>
<path d="M206.664 170.781H204.283V169.389C203.858 170.008 203.361 170.468 202.79 170.769C202.226 171.071 201.579 171.222 200.847 171.222C199.376 171.222 198.216 170.705 197.367 169.672C196.526 168.631 196.105 167.209 196.105 165.407C196.105 163.695 196.537 162.314 197.4 161.266C198.264 160.21 199.391 159.682 200.781 159.682C201.63 159.682 202.354 159.867 202.954 160.236C203.562 160.598 204.004 161.123 204.283 161.809V160.055H206.664V170.781ZM204.348 165.384C204.348 164.275 204.096 163.412 203.591 162.793C203.093 162.175 202.395 161.866 201.495 161.866C200.594 161.866 199.885 162.186 199.365 162.827C198.853 163.461 198.597 164.343 198.597 165.475C198.597 166.613 198.846 167.492 199.343 168.111C199.841 168.729 200.543 169.038 201.451 169.038C202.307 169.038 203.002 168.703 203.536 168.031C204.078 167.36 204.348 166.478 204.348 165.384Z" fill="#FFFBF7"/>
<path d="M211.746 175.827H209.299L212.152 169.853L208.333 160.055H210.967L212.877 165.61C212.987 165.95 213.082 166.297 213.162 166.651C213.25 166.998 213.32 167.353 213.371 167.715C213.466 167.338 213.693 166.738 214.051 165.916L214.106 165.78L216.675 160.055H219.254L211.746 175.827Z" fill="#FFFBF7"/>
<defs>
<linearGradient id="paint0_linear_32_4547" x1="184.962" y1="-52.5733" x2="323.416" y2="238.851" gradientUnits="userSpaceOnUse">
<stop offset="0.104167" stop-color="#99FDD9"/>
<stop offset="1" stop-color="#1E62A2"/>
</linearGradient>
<clipPath id="clip0_32_4547">
<rect width="68.754" height="68.754" fill="white" transform="translate(121.331 57.5281)"/>
</clipPath>
<clipPath id="clip1_32_4547">
<rect width="14.8293" height="14.8293" fill="white" transform="translate(276.364 11.692)"/>
</clipPath>
</defs>
</svg>
