<svg width="313" height="217" viewBox="0 0 313 217" fill="none" xmlns="http://www.w3.org/2000/svg">
<rect width="312.123" height="216.865" rx="15" fill="url(#paint0_linear_32_4627)"/>
<path d="M127.311 161.328C127.311 163.843 126.685 165.821 125.435 167.261C124.192 168.702 122.461 169.422 120.241 169.422C117.972 169.422 116.22 168.716 114.983 167.304C113.754 165.885 113.14 163.886 113.14 161.306C113.14 158.748 113.758 156.767 114.994 155.362C116.23 153.95 117.986 153.244 120.262 153.244C122.475 153.244 124.202 153.961 125.446 155.394C126.689 156.827 127.311 158.805 127.311 161.328ZM115.036 161.328C115.036 163.456 115.479 165.072 116.364 166.176C117.256 167.272 118.548 167.82 120.241 167.82C121.948 167.82 123.237 167.272 124.108 166.176C124.979 165.079 125.414 163.463 125.414 161.328C125.414 159.214 124.979 157.612 124.108 156.523C123.244 155.426 121.962 154.878 120.262 154.878C118.555 154.878 117.256 155.43 116.364 156.534C115.479 157.63 115.036 159.228 115.036 161.328Z" fill="white"/>
<path d="M136.846 169.207H135.055V155.115H130.176V153.492H141.724V155.115H136.846V169.207Z" fill="white"/>
<path d="M157.096 169.207H155.305V161.811H147.192V169.207H145.401V153.492H147.192V160.178H155.305V153.492H157.096V169.207Z" fill="white"/>
<path d="M171.267 169.207H162.68V153.492H171.267V155.115H164.471V160.178H170.856V161.79H164.471V167.573H171.267V169.207Z" fill="white"/>
<path d="M177.831 162.671V169.207H176.04V153.492H180.265C182.154 153.492 183.548 153.861 184.448 154.599C185.354 155.337 185.807 156.448 185.807 157.931C185.807 160.009 184.774 161.414 182.709 162.145L186.892 169.207H184.774L181.044 162.671H177.831ZM177.831 161.102H180.286C181.55 161.102 182.477 160.848 183.067 160.339C183.657 159.823 183.952 159.052 183.952 158.028C183.952 156.989 183.65 156.24 183.046 155.781C182.449 155.323 181.487 155.093 180.159 155.093H177.831V161.102Z" fill="white"/>
<path d="M199.419 165.025C199.419 166.408 198.928 167.487 197.944 168.261C196.961 169.035 195.626 169.422 193.94 169.422C192.114 169.422 190.709 169.182 189.726 168.702V166.939C190.358 167.211 191.047 167.426 191.791 167.584C192.536 167.741 193.273 167.82 194.004 167.82C195.198 167.82 196.097 167.591 196.701 167.132C197.305 166.666 197.607 166.022 197.607 165.197C197.607 164.653 197.498 164.208 197.28 163.865C197.07 163.513 196.711 163.191 196.206 162.897C195.707 162.603 194.945 162.27 193.919 161.897C192.487 161.374 191.461 160.754 190.843 160.038C190.232 159.321 189.926 158.386 189.926 157.232C189.926 156.021 190.372 155.057 191.264 154.341C192.156 153.624 193.336 153.266 194.804 153.266C196.336 153.266 197.744 153.553 199.029 154.126L198.471 155.717C197.2 155.172 195.963 154.9 194.762 154.9C193.814 154.9 193.073 155.108 192.539 155.523C192.005 155.939 191.738 156.516 191.738 157.254C191.738 157.798 191.837 158.246 192.033 158.597C192.23 158.941 192.56 159.26 193.024 159.554C193.494 159.841 194.211 160.16 195.173 160.511C196.789 161.098 197.899 161.729 198.503 162.403C199.114 163.076 199.419 163.951 199.419 165.025Z" fill="white"/>
<path d="M197.211 81.4508C198.185 81.4508 198.975 80.6614 198.975 79.687L198.976 71.4598C198.976 69.7892 197.622 68.4345 195.95 68.4345L118.458 68.4287C116.787 68.4287 115.433 69.7834 115.432 71.454V79.6806C115.432 80.655 116.222 81.445 117.196 81.4456C118.171 81.4456 118.96 82.2356 118.96 83.21L118.959 99.4233C118.959 100.398 118.169 101.188 117.195 101.188C116.22 101.188 115.43 101.978 115.43 102.952L115.43 111.179C115.43 112.85 116.784 114.204 118.455 114.205L195.948 114.21C197.618 114.21 198.973 112.856 198.973 111.185L198.974 102.958C198.974 101.983 198.184 101.193 197.209 101.193C196.235 101.193 195.445 100.403 195.445 99.4284L195.446 83.2151C195.446 82.2407 196.236 81.4508 197.211 81.4508Z" fill="url(#paint1_linear_32_4627)"/>
<path d="M115.43 103.527L115.43 111.18C115.43 112.85 116.784 114.204 118.454 114.205L195.947 114.21C197.618 114.21 198.973 112.856 198.973 111.185L198.973 103.528H115.43V103.527Z" fill="url(#paint2_linear_32_4627)"/>
<path d="M118.829 91.8325L124.384 97.3873V91.8325H118.829Z" fill="url(#paint3_linear_32_4627)"/>
<path d="M141.399 68.5986L147.414 74.6129H141.399V68.5986Z" fill="url(#paint4_linear_32_4627)"/>
<path d="M190.469 108.614H124.689C123.593 108.614 122.705 107.726 122.705 106.63V76.0112C122.705 74.9149 123.593 74.0266 124.689 74.0266H190.469C191.564 74.0266 192.452 74.9149 192.452 76.0112V106.63C192.452 107.726 191.564 108.614 190.469 108.614Z" fill="url(#paint5_linear_32_4627)"/>
<path d="M150.136 79.3497C149.003 78.0779 147.119 77.5865 145.439 78.337C143.796 79.0721 142.216 80.0324 140.772 80.8352C139.898 81.3208 139.182 81.8109 138.543 82.299C137.852 81.9793 137.083 81.8 136.272 81.8C135.42 81.8 134.615 81.9966 133.898 82.3463C133.267 81.876 132.559 81.405 131.703 80.9392C130.251 80.1499 128.663 79.2042 127.013 78.485C124.708 77.4806 122.042 78.7958 121.445 81.2372C121.016 82.9888 122.963 84.7226 122.945 86.4647C122.945 86.4647 120.995 90.4031 121.497 92.3743C121.704 93.1891 122.143 93.8745 122.721 94.3888L139.088 110.756C139.192 110.875 139.305 110.986 139.422 111.09C139.748 111.458 140.137 111.762 140.567 111.988C140.632 112.023 140.698 112.056 140.765 112.086C140.768 112.088 140.771 112.089 140.773 112.09C140.838 112.119 140.903 112.148 140.969 112.174C140.974 112.176 140.979 112.178 140.984 112.179C141.047 112.204 141.111 112.228 141.176 112.25C141.184 112.252 141.192 112.255 141.2 112.257C141.261 112.278 141.324 112.296 141.386 112.314C141.397 112.317 141.408 112.32 141.419 112.322C141.479 112.339 141.539 112.354 141.6 112.367C141.613 112.37 141.627 112.373 141.64 112.376C141.699 112.388 141.758 112.399 141.816 112.409C141.832 112.411 141.848 112.414 141.864 112.416C141.921 112.425 141.978 112.432 142.035 112.439C142.053 112.44 142.072 112.442 142.09 112.444C142.145 112.45 142.2 112.453 142.255 112.456C142.276 112.458 142.296 112.459 142.317 112.46C142.37 112.462 142.423 112.463 142.477 112.463C142.499 112.463 142.522 112.463 142.545 112.462C142.596 112.462 142.648 112.459 142.699 112.456C142.724 112.455 142.749 112.454 142.774 112.452C142.823 112.448 142.872 112.443 142.922 112.437C142.949 112.434 142.975 112.432 143.001 112.428C143.05 112.422 143.098 112.414 143.146 112.405C143.174 112.401 143.202 112.397 143.229 112.391C143.276 112.382 143.324 112.372 143.371 112.361C143.4 112.354 143.428 112.349 143.456 112.342C143.504 112.329 143.551 112.315 143.598 112.301C143.625 112.294 143.654 112.287 143.681 112.278C143.732 112.262 143.782 112.243 143.832 112.225C143.856 112.217 143.881 112.209 143.904 112.201C143.978 112.172 144.052 112.142 144.126 112.109C145.152 111.65 146.154 111.103 147.115 110.561C147.306 110.452 147.497 110.344 147.685 110.237C148.062 110.023 148.432 109.812 148.793 109.611C149.301 109.328 149.756 109.044 150.174 108.76C150.195 108.746 150.214 108.732 150.234 108.718C151.107 109.321 152.166 109.674 153.307 109.674C154.484 109.674 155.572 109.298 156.461 108.661C156.884 108.944 157.346 109.227 157.862 109.507C158.044 109.606 158.227 109.707 158.414 109.811C159.527 110.427 160.712 111.105 161.936 111.682C162.14 111.778 162.346 111.872 162.552 111.961C162.626 111.994 162.7 112.023 162.774 112.051C162.798 112.06 162.821 112.067 162.845 112.075C162.847 112.075 162.849 112.076 162.851 112.077C162.874 112.085 162.897 112.093 162.921 112.1C162.947 112.109 162.972 112.118 162.998 112.126C163.025 112.134 163.053 112.141 163.08 112.149C163.126 112.162 163.172 112.175 163.219 112.186C163.223 112.188 163.226 112.188 163.231 112.19C163.256 112.195 163.282 112.2 163.308 112.206C163.355 112.216 163.403 112.227 163.451 112.236C163.477 112.241 163.503 112.244 163.529 112.248C163.551 112.252 163.572 112.255 163.593 112.259C163.622 112.262 163.651 112.267 163.679 112.27C163.705 112.273 163.731 112.276 163.757 112.278C163.803 112.283 163.849 112.288 163.895 112.291C163.902 112.292 163.909 112.292 163.917 112.292C163.939 112.294 163.96 112.294 163.981 112.295C164.033 112.298 164.084 112.299 164.136 112.3C164.159 112.3 164.181 112.3 164.204 112.299H164.211C164.229 112.299 164.246 112.299 164.264 112.299C164.297 112.298 164.33 112.297 164.364 112.296C164.384 112.294 164.405 112.293 164.425 112.292C164.473 112.289 164.519 112.285 164.567 112.281C164.577 112.28 164.588 112.278 164.598 112.277C164.614 112.276 164.63 112.274 164.645 112.271C164.702 112.265 164.759 112.257 164.816 112.248C164.832 112.245 164.847 112.243 164.863 112.24C164.872 112.238 164.882 112.237 164.891 112.235C164.9 112.234 164.91 112.232 164.92 112.23C164.96 112.223 165 112.214 165.04 112.205C165.053 112.202 165.066 112.199 165.079 112.196C165.127 112.185 165.175 112.174 165.222 112.161C165.233 112.158 165.245 112.155 165.256 112.151C165.258 112.151 165.259 112.15 165.261 112.15C165.272 112.147 165.282 112.144 165.292 112.141C165.355 112.123 165.418 112.104 165.48 112.082C165.487 112.08 165.495 112.077 165.502 112.075C165.566 112.052 165.63 112.028 165.694 112.003C165.699 112.001 165.704 111.999 165.709 111.996C165.757 111.977 165.803 111.957 165.849 111.936C165.857 111.933 165.864 111.929 165.872 111.926C165.883 111.921 165.893 111.916 165.904 111.911C165.907 111.91 165.909 111.909 165.912 111.908C166.092 111.822 166.266 111.724 166.432 111.613C166.436 111.61 166.44 111.608 166.444 111.605C166.625 111.484 166.797 111.347 166.957 111.198C166.958 111.197 166.959 111.196 166.961 111.194C167.51 110.679 167.925 110.005 168.12 109.21C168.603 107.235 166.617 103.314 166.617 103.314C166.582 101.572 168.513 99.8204 168.068 98.0733C167.859 97.2546 167.418 96.5667 166.838 96.0511L150.136 79.3497Z" fill="url(#paint6_linear_32_4627)"/>
<path d="M115.38 90.2012V83.2119C115.38 82.3102 116.111 81.5796 117.013 81.5796H197.386C198.288 81.5796 199.019 82.3102 199.019 83.2119V90.2012C199.019 91.1028 198.288 91.8341 197.386 91.8341H117.013C116.111 91.8341 115.38 91.1028 115.38 90.2012V90.2012Z" fill="url(#paint7_linear_32_4627)"/>
<path d="M144.867 91.8341H161.276L151.021 81.5796H144.867V91.8341Z" fill="url(#paint8_linear_32_4627)"/>
<path d="M139.771 115.675H132.782C131.88 115.675 131.149 114.944 131.149 114.043V68.5978C131.149 67.6961 131.88 66.9648 132.782 66.9648H139.771C140.673 66.9648 141.404 67.6955 141.404 68.5978V114.043C141.404 114.944 140.673 115.675 139.771 115.675Z" fill="url(#paint9_linear_32_4627)"/>
<path d="M131.149 92.871L141.405 103.126V88.415H131.149V92.871Z" fill="url(#paint10_linear_32_4627)"/>
<path d="M134.95 83.1766C134.052 82.4338 133.065 81.6789 131.703 80.9387C130.251 80.1487 128.662 79.203 127.012 78.4839C124.708 77.4801 122.042 78.7953 121.445 81.2367C121.016 82.9883 122.963 84.7221 122.945 86.4642C122.945 86.4642 120.995 90.4026 121.497 92.3731C122.117 94.8088 124.795 96.0991 127.09 95.0736C128.733 94.3391 130.312 93.3788 131.757 92.5754C133.112 91.8218 134.092 91.058 134.984 90.3069C137.2 88.441 137.184 85.0214 134.95 83.1766Z" fill="url(#paint11_linear_32_4627)"/>
<path d="M149.584 86.2779C149.549 84.5359 151.48 82.7836 151.035 81.0364C150.415 78.6007 147.736 77.3105 145.442 78.3359C143.799 79.0704 142.219 80.0308 140.775 80.8341C139.42 81.5878 138.44 82.3516 137.548 83.102C135.332 84.9685 135.349 88.3882 137.581 90.233C138.48 90.9751 139.467 91.73 140.829 92.4708C142.282 93.2608 143.869 94.2059 145.52 94.925C147.824 95.9294 150.49 94.6143 151.087 92.1728C151.571 90.1979 149.584 86.2779 149.584 86.2779Z" fill="url(#paint12_linear_32_4627)"/>
<path d="M134.985 90.3084C135.691 89.7137 136.169 88.9613 136.422 88.1528C132.324 88.5395 125.926 89.9587 123.532 94.9532C124.591 95.5135 125.893 95.6099 127.091 95.0745C128.734 94.34 130.313 93.3796 131.758 92.5769C133.114 91.8233 134.093 91.0588 134.985 90.3084Z" fill="url(#paint13_linear_32_4627)"/>
<path d="M124.643 86.4669C124.65 88.1069 124.866 92.6177 129.39 93.9112C130.21 93.4594 131.003 92.9962 131.759 92.5756C133.114 91.8227 134.094 91.0582 134.986 90.3078C136.228 89.2619 136.768 87.7279 136.61 86.2564C136.61 86.2564 134.236 84.9884 133.182 84.4843C127.487 81.7583 124.632 84.1595 124.643 86.4669Z" fill="url(#paint14_linear_32_4627)"/>
<path d="M137.581 90.2344C136.869 89.6461 136.384 88.8989 136.123 88.0923C140.224 88.4407 146.636 89.7999 149.076 94.7721C148.022 95.3419 146.722 95.4504 145.519 94.9265C143.869 94.2074 142.28 93.2617 140.829 92.4723C139.466 91.7315 138.479 90.9766 137.581 90.2344Z" fill="url(#paint15_linear_32_4627)"/>
<path d="M147.888 86.297C147.895 87.9369 147.723 92.4497 143.211 93.7853C142.387 93.3411 141.59 92.8855 140.829 92.472C139.467 91.7318 138.48 90.9769 137.582 90.2342C136.33 89.2004 135.775 87.6715 135.919 86.1981C135.919 86.1981 138.281 84.9084 139.331 84.3941C145 81.6151 147.877 83.9902 147.888 86.297Z" fill="url(#paint16_linear_32_4627)"/>
<path d="M150.377 93.6619L140.234 83.5203C139.759 83.0111 139.185 82.5951 138.545 82.2983C138.194 82.5676 137.865 82.8363 137.548 83.103C135.332 84.9689 135.348 88.3885 137.582 90.234C138.48 90.9761 139.467 91.731 140.83 92.4718C142.282 93.2612 143.87 94.2069 145.52 94.926C147.295 95.6994 149.283 95.0958 150.377 93.6619Z" fill="url(#paint17_linear_32_4627)"/>
<path d="M141.688 87.2203C141.688 90.2131 139.262 92.6398 136.269 92.6398C133.275 92.6398 130.849 90.2131 130.849 87.2203C130.849 84.2269 133.275 81.8008 136.269 81.8008C139.262 81.8008 141.688 84.2269 141.688 87.2203Z" fill="url(#paint18_linear_32_4627)"/>
<path d="M143.237 97.3464C143.237 97.1997 143.323 97.0733 143.494 96.9668C143.666 96.8608 143.85 96.8079 144.046 96.8079C144.291 96.8079 144.441 96.8978 144.499 97.0771L146.519 104.056L148.527 97.0771C148.583 96.8978 148.73 96.8079 148.965 96.8079C149.16 96.8079 149.344 96.8608 149.519 96.9668C149.693 97.072 149.781 97.1984 149.781 97.3445C149.781 97.3688 149.772 97.4058 149.756 97.4543L147.333 105.389C147.293 105.528 147.195 105.637 147.041 105.715C146.887 105.793 146.713 105.832 146.519 105.832C146.07 105.832 145.797 105.685 145.699 105.391L143.249 97.4568C143.242 97.4319 143.237 97.3956 143.237 97.3464Z" fill="url(#paint19_linear_32_4627)"/>
<path d="M150.673 103.102V99.5384C150.673 98.5997 150.922 97.9099 151.419 97.469C151.917 97.028 152.583 96.8079 153.415 96.8079C154.248 96.8079 154.915 97.028 155.417 97.469C155.919 97.9099 156.17 98.5997 156.17 99.5384V103.102C156.17 104.04 155.919 104.73 155.417 105.17C154.915 105.611 154.248 105.832 153.415 105.832C152.583 105.832 151.917 105.611 151.419 105.17C150.921 104.73 150.673 104.04 150.673 103.102ZM151.97 103.102C151.97 104.154 152.452 104.681 153.415 104.681C153.881 104.681 154.24 104.55 154.493 104.289C154.745 104.028 154.872 103.632 154.872 103.102V99.5384C154.872 99.0074 154.746 98.6118 154.493 98.3508C154.24 98.0892 153.881 97.959 153.415 97.959C152.452 97.959 151.97 98.4855 151.97 99.5384V103.102Z" fill="url(#paint20_linear_32_4627)"/>
<path d="M157.653 103.102V97.2246C157.653 97.0861 157.716 96.9814 157.843 96.9125C157.969 96.843 158.122 96.8085 158.302 96.8085C158.482 96.8085 158.635 96.843 158.761 96.9125C158.888 96.9814 158.951 97.0861 158.951 97.2246V103.102C158.951 103.633 159.081 104.029 159.343 104.29C159.604 104.551 159.972 104.682 160.445 104.682C161.449 104.682 161.951 104.155 161.951 103.102V97.2246C161.951 97.0854 162.014 96.9814 162.141 96.9119C162.268 96.843 162.42 96.8079 162.6 96.8079C162.779 96.8079 162.932 96.843 163.059 96.9119C163.186 96.9814 163.249 97.0854 163.249 97.2246V103.102C163.249 104.041 162.994 104.73 162.484 105.171C161.973 105.612 161.294 105.832 160.445 105.832C159.604 105.832 158.929 105.612 158.418 105.171C157.908 104.731 157.653 104.041 157.653 103.102Z" fill="url(#paint21_linear_32_4627)"/>
<path d="M164.741 103.102V99.5384C164.741 98.5997 164.992 97.9099 165.494 97.469C165.996 97.028 166.651 96.8079 167.46 96.8079C168.292 96.8079 168.964 97.014 169.473 97.4256C169.984 97.8384 170.239 98.3706 170.239 99.0234C170.239 99.285 170.19 99.4624 170.092 99.5562C169.994 99.65 169.826 99.6973 169.59 99.6973C169.165 99.6973 168.949 99.5543 168.941 99.2684C168.892 98.3955 168.414 97.9584 167.508 97.9584C166.529 97.9584 166.039 98.4848 166.039 99.5384V103.102C166.039 104.154 166.537 104.681 167.533 104.681C167.827 104.681 168.072 104.638 168.267 104.553C168.463 104.467 168.604 104.342 168.69 104.179C168.775 104.016 168.835 103.873 168.867 103.751C168.9 103.628 168.925 103.477 168.941 103.298C168.966 103.012 169.177 102.869 169.577 102.869C169.814 102.869 169.984 102.916 170.086 103.01C170.188 103.104 170.239 103.281 170.239 103.543C170.239 104.22 169.981 104.771 169.468 105.195C168.953 105.62 168.28 105.832 167.447 105.832C166.639 105.832 165.986 105.611 165.488 105.17C164.99 104.73 164.741 104.04 164.741 103.102Z" fill="url(#paint22_linear_32_4627)"/>
<path d="M171.45 105.33V97.2239C171.45 97.0854 171.513 96.9814 171.64 96.9119C171.766 96.843 171.919 96.8079 172.099 96.8079C172.278 96.8079 172.432 96.8423 172.558 96.9119C172.684 96.9814 172.748 97.0854 172.748 97.2239V100.603H175.797V97.2239C175.797 97.0854 175.86 96.9814 175.987 96.9119C176.113 96.843 176.266 96.8079 176.446 96.8079C176.625 96.8079 176.778 96.8423 176.905 96.9119C177.031 96.9814 177.094 97.0854 177.094 97.2239V105.33C177.094 105.461 177.031 105.565 176.905 105.642C176.778 105.72 176.625 105.759 176.446 105.759C176.274 105.759 176.123 105.72 175.993 105.642C175.862 105.565 175.797 105.461 175.797 105.33V101.632H172.748V105.33C172.748 105.461 172.684 105.565 172.558 105.642C172.432 105.72 172.278 105.759 172.099 105.759C171.928 105.759 171.776 105.72 171.646 105.642C171.515 105.565 171.45 105.461 171.45 105.33Z" fill="url(#paint23_linear_32_4627)"/>
<path d="M178.713 105.33V97.236C178.713 97.1059 178.77 97.0018 178.885 96.924C178.999 96.8461 179.133 96.8079 179.288 96.8079H183.647C183.787 96.8079 183.892 96.8647 183.966 96.9789C184.039 97.0931 184.076 97.2239 184.076 97.3707C184.076 97.534 184.037 97.6731 183.96 97.7874C183.882 97.9016 183.778 97.9584 183.647 97.9584H180.011V100.763H181.896C182.027 100.763 182.131 100.814 182.209 100.915C182.286 101.018 182.325 101.142 182.325 101.289C182.325 101.42 182.288 101.536 182.215 101.638C182.141 101.741 182.036 101.791 181.896 101.791H180.011V104.608H183.647C183.778 104.608 183.882 104.664 183.96 104.779C184.037 104.893 184.076 105.032 184.076 105.195C184.076 105.342 184.039 105.473 183.966 105.587C183.892 105.701 183.787 105.758 183.647 105.758H179.288C179.133 105.758 178.999 105.72 178.885 105.642C178.77 105.565 178.713 105.461 178.713 105.33Z" fill="url(#paint24_linear_32_4627)"/>
<path d="M185.116 105.33V97.2239C185.116 97.1097 185.156 97.0121 185.239 96.9304C185.32 96.8487 185.423 96.8079 185.544 96.8079H187.871C189.748 96.8079 190.687 97.6406 190.687 99.3054C190.687 99.9965 190.532 100.539 190.222 100.933C189.912 101.328 189.491 101.59 188.961 101.72L190.675 104.948C190.707 105.005 190.724 105.066 190.724 105.132C190.724 105.295 190.64 105.447 190.473 105.586C190.305 105.726 190.128 105.795 189.94 105.795C189.728 105.795 189.557 105.668 189.426 105.415L187.638 101.901H186.401V105.329C186.401 105.459 186.338 105.564 186.212 105.642C186.086 105.72 185.932 105.759 185.752 105.759C185.581 105.759 185.432 105.72 185.306 105.642C185.179 105.565 185.116 105.461 185.116 105.33ZM186.402 100.873H187.871C188.883 100.873 189.39 100.388 189.39 99.4158C189.39 98.4446 188.883 97.9584 187.871 97.9584H186.402V100.873Z" fill="url(#paint25_linear_32_4627)"/>
<path d="M294.679 18.9963C294.898 18.9963 295.076 18.8186 295.076 18.5993L295.076 16.7476C295.076 16.3716 294.771 16.0667 294.395 16.0667L276.954 16.0654C276.578 16.0654 276.273 16.3703 276.273 16.7463V18.5979C276.273 18.8172 276.451 18.995 276.67 18.9952C276.889 18.9952 277.067 19.173 277.067 19.3923L277.067 23.0414C277.067 23.2607 276.889 23.4385 276.67 23.4385C276.45 23.4385 276.273 23.6163 276.273 23.8356L276.272 25.6873C276.272 26.0633 276.577 26.3681 276.953 26.3682L294.395 26.3694C294.771 26.3694 295.076 26.0646 295.076 25.6886L295.076 23.8369C295.076 23.6176 294.898 23.4398 294.679 23.4398C294.459 23.4398 294.282 23.262 294.282 23.0425L294.282 19.3934C294.282 19.1741 294.46 18.9963 294.679 18.9963Z" fill="url(#paint26_linear_32_4627)"/>
<path d="M276.273 23.9658L276.272 25.6881C276.272 26.0641 276.577 26.3689 276.953 26.369L294.395 26.3702C294.771 26.3702 295.075 26.0654 295.075 25.6894L295.076 23.966H276.273V23.9658Z" fill="url(#paint27_linear_32_4627)"/>
<path d="M277.038 21.3328L278.288 22.583V21.3328H277.038Z" fill="url(#paint28_linear_32_4627)"/>
<path d="M282.117 16.1038L283.471 17.4574H282.117V16.1038Z" fill="url(#paint29_linear_32_4627)"/>
<path d="M293.162 25.11H278.357C278.11 25.11 277.91 24.9102 277.91 24.6635V17.7721C277.91 17.5254 278.11 17.3254 278.357 17.3254H293.162C293.408 17.3254 293.608 17.5254 293.608 17.7721V24.6635C293.608 24.9101 293.408 25.11 293.162 25.11Z" fill="url(#paint30_linear_32_4627)"/>
<path d="M284.084 18.5242C283.829 18.2379 283.405 18.1273 283.027 18.2962C282.657 18.4617 282.301 18.6778 281.976 18.8585C281.78 18.9678 281.618 19.0781 281.475 19.188C281.319 19.116 281.146 19.0757 280.963 19.0757C280.772 19.0757 280.591 19.1199 280.429 19.1986C280.287 19.0928 280.128 18.9868 279.935 18.8819C279.608 18.7043 279.251 18.4914 278.879 18.3296C278.361 18.1035 277.761 18.3995 277.626 18.949C277.53 19.3432 277.968 19.7335 277.964 20.1255C277.964 20.1255 277.525 21.012 277.638 21.4556C277.685 21.639 277.783 21.7933 277.913 21.909L281.597 25.5928C281.621 25.6195 281.646 25.6445 281.672 25.668C281.746 25.7509 281.833 25.8191 281.93 25.8701C281.945 25.878 281.96 25.8853 281.975 25.8922C281.975 25.8925 281.976 25.8928 281.976 25.8929C281.991 25.8997 282.006 25.906 282.021 25.9119C282.022 25.9123 282.023 25.9127 282.024 25.9132C282.038 25.9188 282.053 25.9241 282.067 25.929C282.069 25.9296 282.071 25.9301 282.073 25.9307C282.086 25.9353 282.1 25.9395 282.114 25.9435C282.117 25.9441 282.119 25.9448 282.122 25.9453C282.135 25.9491 282.149 25.9524 282.163 25.9554C282.166 25.9561 282.169 25.9567 282.172 25.9574C282.185 25.9601 282.198 25.9626 282.211 25.9647C282.215 25.9653 282.218 25.9659 282.222 25.9665C282.235 25.9685 282.248 25.9701 282.261 25.9715C282.265 25.9719 282.269 25.9723 282.273 25.9728C282.285 25.9741 282.298 25.9748 282.31 25.9755C282.315 25.9758 282.319 25.9761 282.324 25.9762C282.336 25.9768 282.348 25.9769 282.36 25.9769C282.365 25.9769 282.37 25.9769 282.375 25.9768C282.387 25.9767 282.398 25.9761 282.41 25.9755C282.416 25.9751 282.421 25.9749 282.427 25.9745C282.438 25.9736 282.449 25.9725 282.46 25.9712C282.466 25.9705 282.472 25.9699 282.478 25.9692C282.489 25.9678 282.5 25.9659 282.511 25.964C282.517 25.963 282.523 25.9622 282.529 25.9609C282.54 25.9588 282.551 25.9564 282.561 25.954C282.568 25.9525 282.574 25.9512 282.58 25.9497C282.591 25.9469 282.602 25.9438 282.612 25.9406C282.618 25.9389 282.625 25.9373 282.631 25.9353C282.642 25.9317 282.654 25.9275 282.665 25.9235C282.67 25.9217 282.676 25.9199 282.681 25.9179C282.698 25.9116 282.715 25.9047 282.731 25.8974C282.962 25.7941 283.188 25.6709 283.404 25.5488C283.447 25.5244 283.49 25.5001 283.532 25.476C283.617 25.4277 283.7 25.3803 283.781 25.3351C283.896 25.2715 283.998 25.2076 284.092 25.1437C284.097 25.1405 284.101 25.1373 284.106 25.1342C284.302 25.2698 284.541 25.3493 284.797 25.3493C285.062 25.3493 285.307 25.2646 285.507 25.1213C285.603 25.185 285.707 25.2486 285.823 25.3117C285.864 25.334 285.905 25.3568 285.947 25.3801C286.197 25.5188 286.464 25.6713 286.74 25.8012C286.786 25.8228 286.832 25.844 286.878 25.8641C286.895 25.8714 286.912 25.878 286.928 25.8842C286.934 25.8862 286.939 25.8878 286.944 25.8896C286.945 25.8898 286.945 25.8899 286.945 25.8901C286.951 25.8919 286.956 25.8936 286.961 25.8954C286.967 25.8972 286.973 25.8994 286.979 25.9011C286.985 25.903 286.991 25.9046 286.997 25.9063C287.008 25.9092 287.018 25.9122 287.028 25.9148C287.029 25.915 287.03 25.9152 287.031 25.9155C287.037 25.9168 287.043 25.9178 287.048 25.9191C287.059 25.9215 287.07 25.9238 287.081 25.9258C287.087 25.927 287.092 25.9277 287.098 25.9287C287.103 25.9294 287.108 25.9303 287.113 25.931C287.119 25.9318 287.126 25.9329 287.132 25.9336C287.138 25.9343 287.144 25.9349 287.15 25.9354C287.16 25.9364 287.17 25.9376 287.18 25.9383C287.182 25.9385 287.184 25.9386 287.185 25.9386C287.19 25.9389 287.195 25.939 287.2 25.9392C287.212 25.9397 287.223 25.9402 287.235 25.9403C287.24 25.9403 287.245 25.9403 287.25 25.9402H287.252C287.256 25.9402 287.26 25.9402 287.264 25.94C287.271 25.9399 287.279 25.9396 287.286 25.9393C287.291 25.939 287.295 25.9387 287.3 25.9385C287.311 25.9377 287.321 25.937 287.332 25.936C287.334 25.9357 287.336 25.9354 287.339 25.9352C287.342 25.9349 287.346 25.9344 287.349 25.9339C287.362 25.9324 287.375 25.9307 287.388 25.9285C287.391 25.928 287.395 25.9274 287.398 25.9268C287.4 25.9264 287.403 25.9261 287.405 25.9257C287.407 25.9254 287.409 25.925 287.411 25.9245C287.42 25.9229 287.429 25.9209 287.438 25.9189C287.441 25.9183 287.444 25.9176 287.447 25.9169C287.458 25.9145 287.469 25.9119 287.479 25.909C287.482 25.9083 287.484 25.9076 287.487 25.9069C287.487 25.9067 287.488 25.9066 287.488 25.9066C287.49 25.9059 287.493 25.9051 287.495 25.9046C287.509 25.9005 287.523 25.8961 287.537 25.8913C287.539 25.8908 287.541 25.8902 287.542 25.8896C287.557 25.8846 287.571 25.8791 287.585 25.8734C287.587 25.873 287.588 25.8725 287.589 25.872C287.6 25.8677 287.61 25.8632 287.62 25.8585C287.622 25.8576 287.624 25.8569 287.626 25.8562C287.628 25.855 287.63 25.8539 287.633 25.8527C287.633 25.8524 287.634 25.8523 287.634 25.852C287.675 25.8328 287.714 25.8106 287.752 25.7856C287.752 25.7851 287.753 25.7845 287.754 25.7839C287.795 25.7566 287.834 25.7259 287.87 25.6923C287.87 25.692 287.87 25.6917 287.871 25.6914C287.994 25.5755 288.088 25.4237 288.131 25.2448C288.24 24.8003 287.793 23.9179 287.793 23.9179C287.785 23.5258 288.22 23.1315 288.12 22.7383C288.073 22.554 287.973 22.3992 287.843 22.2832L284.084 18.5242Z" fill="url(#paint31_linear_32_4627)"/>
<path d="M276.262 20.9668V19.3937C276.262 19.1908 276.426 19.0264 276.629 19.0264H294.719C294.922 19.0264 295.086 19.1908 295.086 19.3937V20.9668C295.086 21.1698 294.922 21.3344 294.719 21.3344H276.629C276.426 21.3344 276.262 21.1698 276.262 20.9668V20.9668Z" fill="url(#paint32_linear_32_4627)"/>
<path d="M282.899 21.3344H286.592L284.284 19.0264H282.899V21.3344Z" fill="url(#paint33_linear_32_4627)"/>
<path d="M281.752 26.6996H280.179C279.976 26.6996 279.812 26.535 279.812 26.3321V16.1039C279.812 15.9009 279.976 15.7363 280.179 15.7363H281.752C281.955 15.7363 282.12 15.9008 282.12 16.1039V26.3321C282.12 26.535 281.955 26.6996 281.752 26.6996Z" fill="url(#paint34_linear_32_4627)"/>
<path d="M279.812 21.5669L282.12 23.875V20.564H279.812V21.5669Z" fill="url(#paint35_linear_32_4627)"/>
<path d="M280.666 19.3847C280.464 19.2175 280.242 19.0476 279.935 18.881C279.608 18.7032 279.251 18.4904 278.879 18.3285C278.361 18.1026 277.761 18.3986 277.626 18.9481C277.53 19.3423 277.968 19.7326 277.964 20.1246C277.964 20.1246 277.525 21.0111 277.638 21.4546C277.778 22.0028 278.38 22.2932 278.897 22.0624C279.267 21.8971 279.622 21.6809 279.947 21.5001C280.252 21.3305 280.473 21.1586 280.674 20.9895C281.172 20.5696 281.169 19.7999 280.666 19.3847Z" fill="url(#paint36_linear_32_4627)"/>
<path d="M283.96 20.0826C283.953 19.6905 284.387 19.2962 284.287 18.9029C284.147 18.3547 283.545 18.0643 283.028 18.2951C282.658 18.4604 282.303 18.6766 281.978 18.8574C281.673 19.027 281.452 19.1989 281.252 19.3678C280.753 19.7879 280.757 20.5576 281.259 20.9728C281.461 21.1398 281.684 21.3097 281.99 21.4765C282.317 21.6543 282.674 21.867 283.046 22.0288C283.564 22.2549 284.164 21.9589 284.299 21.4094C284.408 20.9649 283.96 20.0826 283.96 20.0826Z" fill="url(#paint37_linear_32_4627)"/>
<path d="M280.674 20.99C280.833 20.8562 280.941 20.6869 280.998 20.5049C280.075 20.5919 278.635 20.9113 278.097 22.0355C278.335 22.1615 278.628 22.1832 278.898 22.0627C279.267 21.8974 279.623 21.6813 279.948 21.5006C280.253 21.331 280.474 21.1589 280.674 20.99Z" fill="url(#paint38_linear_32_4627)"/>
<path d="M278.347 20.126C278.348 20.4951 278.397 21.5104 279.415 21.8015C279.6 21.6998 279.778 21.5955 279.948 21.5009C280.253 21.3314 280.474 21.1593 280.675 20.9904C280.954 20.7551 281.076 20.4098 281.04 20.0786C281.04 20.0786 280.506 19.7932 280.269 19.6798C278.987 19.0662 278.344 19.6067 278.347 20.126Z" fill="url(#paint39_linear_32_4627)"/>
<path d="M281.258 20.9738C281.098 20.8414 280.988 20.6732 280.93 20.4917C281.853 20.5701 283.296 20.876 283.845 21.9951C283.608 22.1234 283.315 22.1478 283.044 22.0299C282.673 21.868 282.315 21.6552 281.989 21.4775C281.682 21.3108 281.46 21.1409 281.258 20.9738Z" fill="url(#paint40_linear_32_4627)"/>
<path d="M283.579 20.0874C283.58 20.4565 283.542 21.4722 282.526 21.7728C282.341 21.6728 282.161 21.5702 281.99 21.4772C281.684 21.3106 281.461 21.1407 281.259 20.9735C280.977 20.7408 280.853 20.3967 280.885 20.0651C280.885 20.0651 281.417 19.7748 281.653 19.6591C282.929 19.0336 283.576 19.5682 283.579 20.0874Z" fill="url(#paint41_linear_32_4627)"/>
<path d="M284.139 21.7446L281.856 19.462C281.749 19.3474 281.62 19.2538 281.476 19.187C281.397 19.2476 281.323 19.3081 281.252 19.3681C280.753 19.7881 280.757 20.5577 281.259 20.9731C281.461 21.1401 281.684 21.31 281.99 21.4768C282.317 21.6544 282.674 21.8673 283.046 22.0291C283.445 22.2032 283.893 22.0673 284.139 21.7446Z" fill="url(#paint42_linear_32_4627)"/>
<path d="M282.182 20.2947C282.182 20.9683 281.636 21.5145 280.962 21.5145C280.288 21.5145 279.742 20.9683 279.742 20.2947C279.742 19.621 280.288 19.075 280.962 19.075C281.636 19.075 282.182 19.621 282.182 20.2947Z" fill="url(#paint43_linear_32_4627)"/>
<path d="M282.531 22.5743C282.531 22.5413 282.551 22.5129 282.589 22.4889C282.628 22.465 282.669 22.4531 282.713 22.4531C282.768 22.4531 282.802 22.4734 282.815 22.5137L283.27 24.0845L283.722 22.5137C283.735 22.4734 283.767 22.4531 283.82 22.4531C283.864 22.4531 283.906 22.465 283.945 22.4889C283.984 22.5126 284.004 22.541 284.004 22.5739C284.004 22.5794 284.002 22.5877 283.998 22.5986L283.453 24.3845C283.444 24.4158 283.422 24.4404 283.387 24.4579C283.353 24.4755 283.314 24.4842 283.27 24.4842C283.169 24.4842 283.107 24.451 283.085 24.385L282.534 22.5992C282.532 22.5936 282.531 22.5854 282.531 22.5743Z" fill="url(#paint44_linear_32_4627)"/>
<path d="M284.206 23.8697V23.0677C284.206 22.8564 284.262 22.7012 284.374 22.6019C284.486 22.5027 284.636 22.4531 284.823 22.4531C285.011 22.4531 285.161 22.5027 285.274 22.6019C285.387 22.7012 285.443 22.8564 285.443 23.0677V23.8697C285.443 24.0809 285.387 24.2362 285.274 24.3353C285.161 24.4345 285.011 24.4842 284.823 24.4842C284.636 24.4842 284.486 24.4345 284.374 24.3353C284.262 24.2362 284.206 24.0809 284.206 23.8697ZM284.498 23.8697C284.498 24.1066 284.606 24.2251 284.823 24.2251C284.928 24.2251 285.009 24.1957 285.066 24.1369C285.123 24.0782 285.151 23.989 285.151 23.8697V23.0677C285.151 22.9482 285.123 22.8591 285.066 22.8004C285.009 22.7415 284.928 22.7122 284.823 22.7122C284.606 22.7122 284.498 22.8307 284.498 23.0677V23.8697Z" fill="url(#paint45_linear_32_4627)"/>
<path d="M285.777 23.8698V22.5469C285.777 22.5157 285.792 22.4922 285.82 22.4767C285.848 22.461 285.883 22.4533 285.923 22.4533C285.964 22.4533 285.998 22.461 286.027 22.4767C286.055 22.4922 286.069 22.5157 286.069 22.5469V23.8698C286.069 23.9892 286.099 24.0783 286.158 24.1371C286.216 24.1958 286.299 24.2253 286.406 24.2253C286.632 24.2253 286.745 24.1068 286.745 23.8697V22.5469C286.745 22.5156 286.759 22.4922 286.787 22.4765C286.816 22.461 286.85 22.4531 286.891 22.4531C286.931 22.4531 286.966 22.461 286.994 22.4765C287.023 22.4922 287.037 22.5156 287.037 22.5469V23.8697C287.037 24.0811 286.979 24.2362 286.865 24.3354C286.75 24.4347 286.597 24.4842 286.406 24.4842C286.216 24.4842 286.064 24.4347 285.95 24.3354C285.835 24.2363 285.777 24.0811 285.777 23.8698Z" fill="url(#paint46_linear_32_4627)"/>
<path d="M287.37 23.8697V23.0677C287.37 22.8564 287.427 22.7012 287.54 22.6019C287.653 22.5027 287.8 22.4531 287.982 22.4531C288.169 22.4531 288.32 22.4995 288.435 22.5922C288.55 22.6851 288.607 22.8049 288.607 22.9518C288.607 23.0107 288.596 23.0506 288.574 23.0717C288.552 23.0928 288.515 23.1034 288.461 23.1034C288.366 23.1034 288.317 23.0713 288.315 23.0069C288.304 22.8105 288.197 22.7121 287.993 22.7121C287.772 22.7121 287.662 22.8306 287.662 23.0677V23.8697C287.662 24.1066 287.774 24.2251 287.998 24.2251C288.065 24.2251 288.12 24.2155 288.164 24.1963C288.208 24.1769 288.24 24.1489 288.259 24.1121C288.278 24.0755 288.291 24.0433 288.299 24.0157C288.306 23.9881 288.312 23.9541 288.315 23.9138C288.321 23.8494 288.369 23.8172 288.459 23.8172C288.512 23.8172 288.55 23.8279 288.573 23.849C288.596 23.8701 288.607 23.91 288.607 23.9689C288.607 24.1214 288.55 24.2454 288.434 24.3409C288.318 24.4364 288.166 24.4842 287.979 24.4842C287.797 24.4842 287.65 24.4345 287.538 24.3353C287.426 24.2362 287.37 24.0809 287.37 23.8697Z" fill="url(#paint47_linear_32_4627)"/>
<path d="M288.882 24.3712V22.5468C288.882 22.5156 288.896 22.4922 288.924 22.4765C288.953 22.461 288.987 22.4531 289.028 22.4531C289.068 22.4531 289.103 22.4609 289.131 22.4765C289.16 22.4922 289.174 22.5156 289.174 22.5468V23.3074H289.86V22.5468C289.86 22.5156 289.874 22.4922 289.903 22.4765C289.931 22.461 289.966 22.4531 290.006 22.4531C290.047 22.4531 290.081 22.4609 290.11 22.4765C290.138 22.4922 290.152 22.5156 290.152 22.5468V24.3712C290.152 24.4006 290.138 24.424 290.11 24.4414C290.081 24.4589 290.047 24.4677 290.006 24.4677C289.968 24.4677 289.934 24.4589 289.904 24.4414C289.875 24.424 289.86 24.4006 289.86 24.3712V23.5389H289.174V24.3712C289.174 24.4006 289.16 24.424 289.131 24.4414C289.103 24.4589 289.068 24.4677 289.028 24.4677C288.989 24.4677 288.955 24.4589 288.926 24.4414C288.896 24.424 288.882 24.4006 288.882 24.3712Z" fill="url(#paint48_linear_32_4627)"/>
<path d="M290.517 24.3712V22.5495C290.517 22.5202 290.53 22.4968 290.555 22.4793C290.581 22.4617 290.611 22.4531 290.646 22.4531H291.627C291.659 22.4531 291.682 22.4659 291.699 22.4916C291.715 22.5173 291.724 22.5468 291.724 22.5798C291.724 22.6166 291.715 22.6479 291.698 22.6736C291.68 22.6993 291.657 22.7121 291.627 22.7121H290.809V23.3433H291.233C291.263 23.3433 291.286 23.3548 291.304 23.3776C291.321 23.4007 291.33 23.4286 291.33 23.4618C291.33 23.4911 291.321 23.5174 291.305 23.5403C291.288 23.5633 291.264 23.5747 291.233 23.5747H290.809V24.2086H291.627C291.657 24.2086 291.68 24.2214 291.698 24.2471C291.715 24.2729 291.724 24.3041 291.724 24.3409C291.724 24.3739 291.715 24.4034 291.699 24.4291C291.682 24.4548 291.659 24.4676 291.627 24.4676H290.646C290.611 24.4676 290.581 24.4589 290.555 24.4414C290.53 24.424 290.517 24.4006 290.517 24.3712Z" fill="url(#paint49_linear_32_4627)"/>
<path d="M291.957 24.3712V22.5468C291.957 22.5211 291.966 22.4991 291.985 22.4807C292.003 22.4623 292.026 22.4531 292.053 22.4531H292.577C293 22.4531 293.211 22.6406 293.211 23.0153C293.211 23.1708 293.176 23.2929 293.106 23.3816C293.036 23.4704 292.942 23.5294 292.822 23.5587L293.208 24.2852C293.215 24.2981 293.219 24.3119 293.219 24.3267C293.219 24.3634 293.2 24.3975 293.163 24.4289C293.125 24.4602 293.085 24.4759 293.043 24.4759C292.995 24.4759 292.956 24.4473 292.927 24.3903L292.525 23.5995H292.246V24.3709C292.246 24.4003 292.232 24.4239 292.204 24.4414C292.175 24.4589 292.141 24.4677 292.1 24.4677C292.062 24.4677 292.028 24.4589 292 24.4414C291.971 24.424 291.957 24.4006 291.957 24.3712ZM292.246 23.368H292.577C292.805 23.368 292.919 23.2588 292.919 23.0401C292.919 22.8215 292.805 22.7121 292.577 22.7121H292.246V23.368Z" fill="url(#paint50_linear_32_4627)"/>
<defs>
<linearGradient id="paint0_linear_32_4627" x1="171.668" y1="-34.1361" x2="180.173" y2="350.237" gradientUnits="userSpaceOnUse">
<stop stop-color="#FD749B"/>
<stop offset="1" stop-color="#281AC8"/>
</linearGradient>
<linearGradient id="paint1_linear_32_4627" x1="135.536" y1="69.6527" x2="192.081" y2="126.198" gradientUnits="userSpaceOnUse">
<stop stop-color="#FFD459"/>
<stop offset="0.2296" stop-color="#FFD355"/>
<stop offset="0.4362" stop-color="#FFCF4A"/>
<stop offset="0.634" stop-color="#FFC838"/>
<stop offset="0.825" stop-color="#FFBF1F"/>
<stop offset="1" stop-color="#FFB400"/>
</linearGradient>
<linearGradient id="paint2_linear_32_4627" x1="157.202" y1="108.249" x2="157.202" y2="116.644" gradientUnits="userSpaceOnUse">
<stop stop-color="#E58200" stop-opacity="0"/>
<stop offset="0.0396" stop-color="#E27F04" stop-opacity="0.039216"/>
<stop offset="0.4671" stop-color="#C15D2F" stop-opacity="0.466667"/>
<stop offset="0.8016" stop-color="#AD4949" stop-opacity="0.8"/>
<stop offset="1" stop-color="#A64153"/>
</linearGradient>
<linearGradient id="paint3_linear_32_4627" x1="123.16" y1="95.3831" x2="120.949" y2="90.3301" gradientUnits="userSpaceOnUse">
<stop stop-color="#E58200" stop-opacity="0"/>
<stop offset="0.0396" stop-color="#E27F04" stop-opacity="0.039216"/>
<stop offset="0.4671" stop-color="#C15D2F" stop-opacity="0.466667"/>
<stop offset="0.8016" stop-color="#AD4949" stop-opacity="0.8"/>
<stop offset="1" stop-color="#A64153"/>
</linearGradient>
<linearGradient id="paint4_linear_32_4627" x1="145.585" y1="74.5633" x2="132.766" y2="65.5045" gradientUnits="userSpaceOnUse">
<stop stop-color="#E58200" stop-opacity="0"/>
<stop offset="0.0396" stop-color="#E27F04" stop-opacity="0.039216"/>
<stop offset="0.4671" stop-color="#C15D2F" stop-opacity="0.466667"/>
<stop offset="0.8016" stop-color="#AD4949" stop-opacity="0.8"/>
<stop offset="1" stop-color="#A64153"/>
</linearGradient>
<linearGradient id="paint5_linear_32_4627" x1="140.008" y1="73.7471" x2="185.864" y2="119.609" gradientUnits="userSpaceOnUse">
<stop stop-color="#FFFCF8"/>
<stop offset="0.1875" stop-color="#FAF8F6"/>
<stop offset="0.4041" stop-color="#ECEEF2"/>
<stop offset="0.6353" stop-color="#D5DCEA"/>
<stop offset="0.875" stop-color="#B5C4DF"/>
<stop offset="1" stop-color="#A1B5D8"/>
</linearGradient>
<linearGradient id="paint6_linear_32_4627" x1="148.246" y1="103.142" x2="133.889" y2="70.3246" gradientUnits="userSpaceOnUse">
<stop stop-color="#A1B5D8" stop-opacity="0"/>
<stop offset="0.0343" stop-color="#9FB3D5" stop-opacity="0.035294"/>
<stop offset="0.4515" stop-color="#8898AF" stop-opacity="0.45098"/>
<stop offset="0.788" stop-color="#798898" stop-opacity="0.788235"/>
<stop offset="1" stop-color="#748290"/>
</linearGradient>
<linearGradient id="paint7_linear_32_4627" x1="157.2" y1="84.6554" x2="157.2" y2="95.7653" gradientUnits="userSpaceOnUse">
<stop stop-color="#FF6E3A"/>
<stop offset="0.1596" stop-color="#FF6440"/>
<stop offset="0.4266" stop-color="#FF4B52"/>
<stop offset="0.7662" stop-color="#FF216E"/>
<stop offset="1" stop-color="#FF0084"/>
</linearGradient>
<linearGradient id="paint8_linear_32_4627" x1="154.781" y1="93.5433" x2="142.759" y2="81.5217" gradientUnits="userSpaceOnUse">
<stop stop-color="#E58200" stop-opacity="0"/>
<stop offset="0.4384" stop-color="#C4602C" stop-opacity="0.439216"/>
<stop offset="0.7953" stop-color="#AE4948" stop-opacity="0.796078"/>
<stop offset="1" stop-color="#A64153"/>
</linearGradient>
<linearGradient id="paint9_linear_32_4627" x1="136.276" y1="88.4936" x2="136.276" y2="126.773" gradientUnits="userSpaceOnUse">
<stop stop-color="#FF6E3A"/>
<stop offset="0.1596" stop-color="#FF6440"/>
<stop offset="0.4266" stop-color="#FF4B52"/>
<stop offset="0.7662" stop-color="#FF216E"/>
<stop offset="1" stop-color="#FF0084"/>
</linearGradient>
<linearGradient id="paint10_linear_32_4627" x1="142.842" y1="97.2077" x2="131.585" y2="85.9514" gradientUnits="userSpaceOnUse">
<stop stop-color="#E58200" stop-opacity="0"/>
<stop offset="0.4384" stop-color="#C4602C" stop-opacity="0.439216"/>
<stop offset="0.7953" stop-color="#AE4948" stop-opacity="0.796078"/>
<stop offset="1" stop-color="#A64153"/>
</linearGradient>
<linearGradient id="paint11_linear_32_4627" x1="131.018" y1="96.6383" x2="126.447" y2="79.3594" gradientUnits="userSpaceOnUse">
<stop stop-color="#FF0084"/>
<stop offset="0.2338" stop-color="#FF216E"/>
<stop offset="0.5734" stop-color="#FF4B52"/>
<stop offset="0.8404" stop-color="#FF6440"/>
<stop offset="1" stop-color="#FF6E3A"/>
</linearGradient>
<linearGradient id="paint12_linear_32_4627" x1="142.91" y1="97.458" x2="144.47" y2="76.2774" gradientUnits="userSpaceOnUse">
<stop stop-color="#FF0084"/>
<stop offset="0.2338" stop-color="#FF216E"/>
<stop offset="0.5734" stop-color="#FF4B52"/>
<stop offset="0.8404" stop-color="#FF6440"/>
<stop offset="1" stop-color="#FF6E3A"/>
</linearGradient>
<linearGradient id="paint13_linear_32_4627" x1="130.063" y1="93.5709" x2="129.741" y2="87.0157" gradientUnits="userSpaceOnUse">
<stop stop-color="#E58200" stop-opacity="0"/>
<stop offset="0.4384" stop-color="#C4602C" stop-opacity="0.439216"/>
<stop offset="0.7953" stop-color="#AE4948" stop-opacity="0.796078"/>
<stop offset="1" stop-color="#A64153"/>
</linearGradient>
<linearGradient id="paint14_linear_32_4627" x1="128.527" y1="88.7053" x2="139.495" y2="79.846" gradientUnits="userSpaceOnUse">
<stop stop-color="#E58200" stop-opacity="0"/>
<stop offset="0.4384" stop-color="#C4602C" stop-opacity="0.439216"/>
<stop offset="0.7953" stop-color="#AE4948" stop-opacity="0.796078"/>
<stop offset="1" stop-color="#A64153"/>
</linearGradient>
<linearGradient id="paint15_linear_32_4627" x1="142.502" y1="93.4498" x2="142.763" y2="86.8907" gradientUnits="userSpaceOnUse">
<stop stop-color="#E58200" stop-opacity="0"/>
<stop offset="0.4384" stop-color="#C4602C" stop-opacity="0.439216"/>
<stop offset="0.7953" stop-color="#AE4948" stop-opacity="0.796078"/>
<stop offset="1" stop-color="#A64153"/>
</linearGradient>
<linearGradient id="paint16_linear_32_4627" x1="143.994" y1="88.5705" x2="132.943" y2="79.8146" gradientUnits="userSpaceOnUse">
<stop stop-color="#E58200" stop-opacity="0"/>
<stop offset="0.4384" stop-color="#C4602C" stop-opacity="0.439216"/>
<stop offset="0.7953" stop-color="#AE4948" stop-opacity="0.796078"/>
<stop offset="1" stop-color="#A64153"/>
</linearGradient>
<linearGradient id="paint17_linear_32_4627" x1="145.076" y1="93.058" x2="136.633" y2="84.6148" gradientUnits="userSpaceOnUse">
<stop stop-color="#E58200" stop-opacity="0"/>
<stop offset="0.4384" stop-color="#C4602C" stop-opacity="0.439216"/>
<stop offset="0.7953" stop-color="#AE4948" stop-opacity="0.796078"/>
<stop offset="1" stop-color="#A64153"/>
</linearGradient>
<linearGradient id="paint18_linear_32_4627" x1="133.135" y1="84.0865" x2="140.898" y2="91.8492" gradientUnits="userSpaceOnUse">
<stop stop-color="#FF6E3A"/>
<stop offset="0.1596" stop-color="#FF6440"/>
<stop offset="0.4266" stop-color="#FF4B52"/>
<stop offset="0.7662" stop-color="#FF216E"/>
<stop offset="1" stop-color="#FF0084"/>
</linearGradient>
<linearGradient id="paint19_linear_32_4627" x1="146.509" y1="99.4845" x2="146.509" y2="107.825" gradientUnits="userSpaceOnUse">
<stop stop-color="#45425A"/>
<stop offset="1" stop-color="#2D3251"/>
</linearGradient>
<linearGradient id="paint20_linear_32_4627" x1="153.421" y1="99.4845" x2="153.421" y2="107.825" gradientUnits="userSpaceOnUse">
<stop stop-color="#45425A"/>
<stop offset="1" stop-color="#2D3251"/>
</linearGradient>
<linearGradient id="paint21_linear_32_4627" x1="160.451" y1="99.4851" x2="160.451" y2="107.826" gradientUnits="userSpaceOnUse">
<stop stop-color="#45425A"/>
<stop offset="1" stop-color="#2D3251"/>
</linearGradient>
<linearGradient id="paint22_linear_32_4627" x1="167.49" y1="99.4845" x2="167.49" y2="107.825" gradientUnits="userSpaceOnUse">
<stop stop-color="#45425A"/>
<stop offset="1" stop-color="#2D3251"/>
</linearGradient>
<linearGradient id="paint23_linear_32_4627" x1="174.272" y1="99.4845" x2="174.272" y2="107.825" gradientUnits="userSpaceOnUse">
<stop stop-color="#45425A"/>
<stop offset="1" stop-color="#2D3251"/>
</linearGradient>
<linearGradient id="paint24_linear_32_4627" x1="181.395" y1="99.4845" x2="181.395" y2="107.825" gradientUnits="userSpaceOnUse">
<stop stop-color="#45425A"/>
<stop offset="1" stop-color="#2D3251"/>
</linearGradient>
<linearGradient id="paint25_linear_32_4627" x1="187.92" y1="99.4845" x2="187.92" y2="107.825" gradientUnits="userSpaceOnUse">
<stop stop-color="#45425A"/>
<stop offset="1" stop-color="#2D3251"/>
</linearGradient>
<linearGradient id="paint26_linear_32_4627" x1="280.798" y1="16.3409" x2="293.524" y2="29.0675" gradientUnits="userSpaceOnUse">
<stop stop-color="#FFD459"/>
<stop offset="0.2296" stop-color="#FFD355"/>
<stop offset="0.4362" stop-color="#FFCF4A"/>
<stop offset="0.634" stop-color="#FFC838"/>
<stop offset="0.825" stop-color="#FFBF1F"/>
<stop offset="1" stop-color="#FFB400"/>
</linearGradient>
<linearGradient id="paint27_linear_32_4627" x1="285.674" y1="25.0285" x2="285.674" y2="26.918" gradientUnits="userSpaceOnUse">
<stop stop-color="#E58200" stop-opacity="0"/>
<stop offset="0.0396" stop-color="#E27F04" stop-opacity="0.039216"/>
<stop offset="0.4671" stop-color="#C15D2F" stop-opacity="0.466667"/>
<stop offset="0.8016" stop-color="#AD4949" stop-opacity="0.8"/>
<stop offset="1" stop-color="#A64153"/>
</linearGradient>
<linearGradient id="paint28_linear_32_4627" x1="278.013" y1="22.1319" x2="277.515" y2="20.9946" gradientUnits="userSpaceOnUse">
<stop stop-color="#E58200" stop-opacity="0"/>
<stop offset="0.0396" stop-color="#E27F04" stop-opacity="0.039216"/>
<stop offset="0.4671" stop-color="#C15D2F" stop-opacity="0.466667"/>
<stop offset="0.8016" stop-color="#AD4949" stop-opacity="0.8"/>
<stop offset="1" stop-color="#A64153"/>
</linearGradient>
<linearGradient id="paint29_linear_32_4627" x1="283.059" y1="17.4462" x2="280.174" y2="15.4074" gradientUnits="userSpaceOnUse">
<stop stop-color="#E58200" stop-opacity="0"/>
<stop offset="0.0396" stop-color="#E27F04" stop-opacity="0.039216"/>
<stop offset="0.4671" stop-color="#C15D2F" stop-opacity="0.466667"/>
<stop offset="0.8016" stop-color="#AD4949" stop-opacity="0.8"/>
<stop offset="1" stop-color="#A64153"/>
</linearGradient>
<linearGradient id="paint30_linear_32_4627" x1="281.804" y1="17.2625" x2="292.125" y2="27.5848" gradientUnits="userSpaceOnUse">
<stop stop-color="#FFFCF8"/>
<stop offset="0.1875" stop-color="#FAF8F6"/>
<stop offset="0.4041" stop-color="#ECEEF2"/>
<stop offset="0.6353" stop-color="#D5DCEA"/>
<stop offset="0.875" stop-color="#B5C4DF"/>
<stop offset="1" stop-color="#A1B5D8"/>
</linearGradient>
<linearGradient id="paint31_linear_32_4627" x1="283.658" y1="23.879" x2="280.427" y2="16.4929" gradientUnits="userSpaceOnUse">
<stop stop-color="#A1B5D8" stop-opacity="0"/>
<stop offset="0.0343" stop-color="#9FB3D5" stop-opacity="0.035294"/>
<stop offset="0.4515" stop-color="#8898AF" stop-opacity="0.45098"/>
<stop offset="0.788" stop-color="#798898" stop-opacity="0.788235"/>
<stop offset="1" stop-color="#748290"/>
</linearGradient>
<linearGradient id="paint32_linear_32_4627" x1="285.674" y1="19.7186" x2="285.674" y2="22.2192" gradientUnits="userSpaceOnUse">
<stop stop-color="#FF6E3A"/>
<stop offset="0.1596" stop-color="#FF6440"/>
<stop offset="0.4266" stop-color="#FF4B52"/>
<stop offset="0.7662" stop-color="#FF216E"/>
<stop offset="1" stop-color="#FF0084"/>
</linearGradient>
<linearGradient id="paint33_linear_32_4627" x1="285.131" y1="21.719" x2="282.425" y2="19.0133" gradientUnits="userSpaceOnUse">
<stop stop-color="#E58200" stop-opacity="0"/>
<stop offset="0.4384" stop-color="#C4602C" stop-opacity="0.439216"/>
<stop offset="0.7953" stop-color="#AE4948" stop-opacity="0.796078"/>
<stop offset="1" stop-color="#A64153"/>
</linearGradient>
<linearGradient id="paint34_linear_32_4627" x1="280.965" y1="20.5818" x2="280.965" y2="29.1974" gradientUnits="userSpaceOnUse">
<stop stop-color="#FF6E3A"/>
<stop offset="0.1596" stop-color="#FF6440"/>
<stop offset="0.4266" stop-color="#FF4B52"/>
<stop offset="0.7662" stop-color="#FF216E"/>
<stop offset="1" stop-color="#FF0084"/>
</linearGradient>
<linearGradient id="paint35_linear_32_4627" x1="282.443" y1="22.5429" x2="279.91" y2="20.0095" gradientUnits="userSpaceOnUse">
<stop stop-color="#E58200" stop-opacity="0"/>
<stop offset="0.4384" stop-color="#C4602C" stop-opacity="0.439216"/>
<stop offset="0.7953" stop-color="#AE4948" stop-opacity="0.796078"/>
<stop offset="1" stop-color="#A64153"/>
</linearGradient>
<linearGradient id="paint36_linear_32_4627" x1="279.781" y1="22.4145" x2="278.752" y2="18.5256" gradientUnits="userSpaceOnUse">
<stop stop-color="#FF0084"/>
<stop offset="0.2338" stop-color="#FF216E"/>
<stop offset="0.5734" stop-color="#FF4B52"/>
<stop offset="0.8404" stop-color="#FF6440"/>
<stop offset="1" stop-color="#FF6E3A"/>
</linearGradient>
<linearGradient id="paint37_linear_32_4627" x1="282.458" y1="22.5989" x2="282.81" y2="17.8318" gradientUnits="userSpaceOnUse">
<stop stop-color="#FF0084"/>
<stop offset="0.2338" stop-color="#FF216E"/>
<stop offset="0.5734" stop-color="#FF4B52"/>
<stop offset="0.8404" stop-color="#FF6440"/>
<stop offset="1" stop-color="#FF6E3A"/>
</linearGradient>
<linearGradient id="paint38_linear_32_4627" x1="279.567" y1="21.7243" x2="279.494" y2="20.2489" gradientUnits="userSpaceOnUse">
<stop stop-color="#E58200" stop-opacity="0"/>
<stop offset="0.4384" stop-color="#C4602C" stop-opacity="0.439216"/>
<stop offset="0.7953" stop-color="#AE4948" stop-opacity="0.796078"/>
<stop offset="1" stop-color="#A64153"/>
</linearGradient>
<linearGradient id="paint39_linear_32_4627" x1="279.221" y1="20.6298" x2="281.69" y2="18.6358" gradientUnits="userSpaceOnUse">
<stop stop-color="#E58200" stop-opacity="0"/>
<stop offset="0.4384" stop-color="#C4602C" stop-opacity="0.439216"/>
<stop offset="0.7953" stop-color="#AE4948" stop-opacity="0.796078"/>
<stop offset="1" stop-color="#A64153"/>
</linearGradient>
<linearGradient id="paint40_linear_32_4627" x1="282.366" y1="21.6975" x2="282.424" y2="20.2213" gradientUnits="userSpaceOnUse">
<stop stop-color="#E58200" stop-opacity="0"/>
<stop offset="0.4384" stop-color="#C4602C" stop-opacity="0.439216"/>
<stop offset="0.7953" stop-color="#AE4948" stop-opacity="0.796078"/>
<stop offset="1" stop-color="#A64153"/>
</linearGradient>
<linearGradient id="paint41_linear_32_4627" x1="282.702" y1="20.5991" x2="280.215" y2="18.6284" gradientUnits="userSpaceOnUse">
<stop stop-color="#E58200" stop-opacity="0"/>
<stop offset="0.4384" stop-color="#C4602C" stop-opacity="0.439216"/>
<stop offset="0.7953" stop-color="#AE4948" stop-opacity="0.796078"/>
<stop offset="1" stop-color="#A64153"/>
</linearGradient>
<linearGradient id="paint42_linear_32_4627" x1="282.946" y1="21.6087" x2="281.046" y2="19.7084" gradientUnits="userSpaceOnUse">
<stop stop-color="#E58200" stop-opacity="0"/>
<stop offset="0.4384" stop-color="#C4602C" stop-opacity="0.439216"/>
<stop offset="0.7953" stop-color="#AE4948" stop-opacity="0.796078"/>
<stop offset="1" stop-color="#A64153"/>
</linearGradient>
<linearGradient id="paint43_linear_32_4627" x1="280.257" y1="19.5894" x2="282.004" y2="21.3365" gradientUnits="userSpaceOnUse">
<stop stop-color="#FF6E3A"/>
<stop offset="0.1596" stop-color="#FF6440"/>
<stop offset="0.4266" stop-color="#FF4B52"/>
<stop offset="0.7662" stop-color="#FF216E"/>
<stop offset="1" stop-color="#FF0084"/>
</linearGradient>
<linearGradient id="paint44_linear_32_4627" x1="283.268" y1="23.0556" x2="283.268" y2="24.9327" gradientUnits="userSpaceOnUse">
<stop stop-color="#45425A"/>
<stop offset="1" stop-color="#2D3251"/>
</linearGradient>
<linearGradient id="paint45_linear_32_4627" x1="284.825" y1="23.0556" x2="284.825" y2="24.9327" gradientUnits="userSpaceOnUse">
<stop stop-color="#45425A"/>
<stop offset="1" stop-color="#2D3251"/>
</linearGradient>
<linearGradient id="paint46_linear_32_4627" x1="286.407" y1="23.0557" x2="286.407" y2="24.9329" gradientUnits="userSpaceOnUse">
<stop stop-color="#45425A"/>
<stop offset="1" stop-color="#2D3251"/>
</linearGradient>
<linearGradient id="paint47_linear_32_4627" x1="287.989" y1="23.0556" x2="287.989" y2="24.9327" gradientUnits="userSpaceOnUse">
<stop stop-color="#45425A"/>
<stop offset="1" stop-color="#2D3251"/>
</linearGradient>
<linearGradient id="paint48_linear_32_4627" x1="289.517" y1="23.0556" x2="289.517" y2="24.9327" gradientUnits="userSpaceOnUse">
<stop stop-color="#45425A"/>
<stop offset="1" stop-color="#2D3251"/>
</linearGradient>
<linearGradient id="paint49_linear_32_4627" x1="291.12" y1="23.0556" x2="291.12" y2="24.9327" gradientUnits="userSpaceOnUse">
<stop stop-color="#45425A"/>
<stop offset="1" stop-color="#2D3251"/>
</linearGradient>
<linearGradient id="paint50_linear_32_4627" x1="292.588" y1="23.0556" x2="292.588" y2="24.9327" gradientUnits="userSpaceOnUse">
<stop stop-color="#45425A"/>
<stop offset="1" stop-color="#2D3251"/>
</linearGradient>
</defs>
</svg>
