<svg width="313" height="217" viewBox="0 0 313 217" fill="none" xmlns="http://www.w3.org/2000/svg">
<rect width="312.123" height="216.865" rx="15" fill="black"/>
<path fill-rule="evenodd" clip-rule="evenodd" d="M155.465 124.88C173.57 124.88 188.246 110.203 188.246 92.0986C188.246 73.9939 173.57 59.3172 155.465 59.3172C137.36 59.3172 122.684 73.9939 122.684 92.0986C122.684 94.311 122.903 96.4723 123.321 98.5618L142.426 99.1184C143.67 96.7505 145.803 94.8521 148.535 93.9495L148.739 84.7227C148.719 84.668 148.698 84.6138 148.677 84.5596C148.636 84.4516 148.595 84.3437 148.561 84.2318C146.623 77.899 150.208 71.1883 156.566 69.2433C162.924 67.2986 169.65 70.8552 171.587 77.188C173.122 82.2051 171.185 87.4487 167.159 90.3833L161.438 99.3431C161.683 99.8437 161.903 100.361 162.071 100.91C163.788 106.522 160.612 112.47 154.98 114.193C150.121 115.679 145.027 113.534 142.614 109.318L127.294 108.872C133.015 118.459 143.49 124.88 155.465 124.88ZM162.002 87.1605C165.53 86.0812 167.519 82.3554 166.443 78.8404C165.368 75.3253 161.636 73.3504 158.108 74.4296C154.577 75.5096 152.589 79.2344 153.664 82.7495C154.74 86.2645 158.47 88.2409 162.002 87.1605ZM162.769 89.6556C157.831 91.1662 152.608 88.403 151.104 83.4841C149.598 78.5628 152.382 73.3507 157.32 71.8401C162.257 70.3298 167.483 73.092 168.988 78.0132C170.493 82.9322 167.708 88.145 162.769 89.6556ZM148.478 98.6045C152.237 97.4546 156.214 99.5594 157.36 103.304C158.505 107.048 156.386 111.018 152.627 112.167C149.566 113.103 146.361 111.883 144.658 109.376L149.182 109.508C151.987 110.057 154.715 108.237 155.271 105.435C155.829 102.638 154.007 99.9232 151.2 99.3724L147.003 99.2504C147.461 98.9877 147.95 98.7659 148.478 98.6045Z" fill="white"/>
<path fill-rule="evenodd" clip-rule="evenodd" d="M289.783 22.9181C293.27 22.9181 296.097 20.0912 296.097 16.604C296.097 13.1168 293.27 10.2899 289.783 10.2899C286.296 10.2899 283.469 13.1168 283.469 16.604C283.469 17.0302 283.511 17.4465 283.591 17.849L287.27 17.9561C287.51 17.5 287.921 17.1344 288.447 16.9605L288.486 15.1833C288.482 15.1728 288.478 15.1624 288.474 15.1519C288.466 15.1311 288.458 15.1103 288.452 15.0888C288.079 13.869 288.769 12.5765 289.994 12.2018C291.218 11.8273 292.514 12.5123 292.887 13.7321C293.183 14.6984 292.809 15.7084 292.034 16.2736L290.932 17.9994C290.979 18.0958 291.022 18.1955 291.054 18.3011C291.385 19.3821 290.773 20.5278 289.688 20.8596C288.752 21.1459 287.771 20.7328 287.306 19.9207L284.357 19.8348C285.459 21.6813 287.476 22.9181 289.783 22.9181ZM291.041 15.6529C291.72 15.445 292.103 14.7274 291.896 14.0503C291.689 13.3733 290.97 12.9929 290.291 13.2008C289.611 13.4088 289.228 14.1262 289.435 14.8033C289.642 15.4803 290.36 15.861 291.041 15.6529ZM291.189 16.1335C290.237 16.4244 289.231 15.8922 288.942 14.9448C288.652 13.9969 289.188 12.993 290.139 12.702C291.09 12.4111 292.096 12.9431 292.386 13.891C292.676 14.8385 292.14 15.8425 291.189 16.1335ZM288.436 17.8571C289.16 17.6356 289.926 18.0411 290.147 18.7623C290.367 19.4835 289.959 20.2481 289.235 20.4694C288.645 20.6497 288.028 20.4147 287.7 19.9319L288.571 19.9574C289.112 20.0631 289.637 19.7125 289.744 19.1728C289.852 18.634 289.501 18.1111 288.96 18.005L288.152 17.9815C288.24 17.9309 288.334 17.8882 288.436 17.8571Z" fill="white"/>
<path d="M87.6032 171.211C93.6062 171.211 96.5177 168.232 96.5177 164.746C96.5177 157.089 84.3015 159.741 84.3015 155.898C84.3015 154.587 85.4121 153.514 88.2935 153.514C90.1545 153.514 92.1655 154.05 94.1165 155.153L95.6172 151.488C93.6663 150.267 90.9649 149.641 88.3235 149.641C82.3505 149.641 79.469 152.591 79.469 156.136C79.469 163.882 91.6852 161.201 91.6852 165.104C91.6852 166.385 90.5147 167.338 87.6332 167.338C85.1119 167.338 82.4706 166.444 80.6997 165.163L79.0488 168.798C80.9098 170.228 84.2715 171.211 87.6032 171.211Z" fill="white"/>
<path d="M110.465 170.854H115.328V153.931H122.051V149.999H103.742V153.931H110.465V170.854Z" fill="white"/>
<path d="M136.066 166.981V162.154H145.821V158.4H136.066V153.872H147.111V149.999H131.233V170.854H147.501V166.981H136.066Z" fill="white"/>
<path d="M173.634 170.854H178.737L169.342 149.999H164.54L155.175 170.854H160.157L162.018 166.385H171.773L173.634 170.854ZM163.579 162.72L166.911 154.736L170.242 162.72H163.579Z" fill="white"/>
<path d="M211.164 170.854L211.104 149.999H207.112L199.368 162.958L191.504 149.999H187.482V170.854H192.045V158.609L198.198 168.649H200.389L206.572 158.341L206.602 170.854H211.164Z" fill="white"/>
<circle cx="229.222" cy="155.174" r="3.86191" stroke="white" stroke-width="0.7"/>
<path d="M229.236 155.569H228.265V157.242H227.717V153.106H229.086C229.552 153.106 229.909 153.212 230.159 153.424C230.411 153.636 230.537 153.945 230.537 154.35C230.537 154.608 230.467 154.832 230.327 155.023C230.189 155.215 229.996 155.358 229.748 155.452L230.719 157.207V157.242H230.134L229.236 155.569ZM228.265 155.123H229.103C229.374 155.123 229.589 155.053 229.748 154.913C229.909 154.772 229.989 154.585 229.989 154.35C229.989 154.095 229.912 153.899 229.759 153.762C229.607 153.626 229.388 153.557 229.1 153.555H228.265V155.123Z" fill="white"/>
</svg>
